<?xml version="1.0" encoding="UTF-8" standalone="no"?>
<svg width="359.833mm" height="38.1mm"
 xmlns="http://www.w3.org/2000/svg" xmlns:xlink="http://www.w3.org/1999/xlink"  version="1.2" baseProfile="tiny">
<title>Qt SVG Document</title>
<desc>Generated with Qt</desc>
<defs>
</defs>
<g fill="none" stroke="black" stroke-width="1" fill-rule="evenodd" stroke-linecap="square" stroke-linejoin="bevel" >

<g fill="none" stroke="#000000" stroke-opacity="1" stroke-width="1" stroke-linecap="square" stroke-linejoin="bevel" transform="matrix(1,0,0,1,0,0)"
font-family="Ubuntu" font-size="11" font-weight="400" font-style="normal" 
>
</g>

<g fill="none" stroke="#000000" stroke-opacity="1" stroke-width="1" stroke-linecap="square" stroke-linejoin="bevel" transform="matrix(1,0,0,1,0,0)"
font-family="Ubuntu" font-size="11" font-weight="400" font-style="normal" 
>
</g>

<g fill="none" stroke="#000000" stroke-opacity="1" stroke-width="1" stroke-linecap="square" stroke-linejoin="bevel" transform="matrix(1.99323,0,0,1.99323,0.00239187,95.4976)"
font-family="Ubuntu" font-size="11" font-weight="400" font-style="normal" 
>
</g>

<g fill="#ffffff" fill-opacity="1" stroke="none" transform="matrix(1.99323,0,0,1.99323,0.00239187,95.4976)"
font-family="Ubuntu" font-size="11" font-weight="400" font-style="normal" 
>
<rect x="-0.0012" y="-47.911" width="509.975" height="54.1835"/>
</g>

<g fill="none" stroke="#000000" stroke-opacity="1" stroke-width="1" stroke-linecap="square" stroke-linejoin="bevel" transform="matrix(1.99323,0,0,1.99323,0.00239187,95.4976)"
font-family="Ubuntu" font-size="11" font-weight="400" font-style="normal" 
>
</g>

<g fill="none" stroke="#000000" stroke-opacity="1" stroke-width="1" stroke-linecap="square" stroke-linejoin="bevel" transform="matrix(1.99323,0,0,1.99323,0.00239187,95.4976)"
font-family="Ubuntu" font-size="11" font-weight="400" font-style="normal" 
>
</g>

<g fill="none" stroke="#000000" stroke-opacity="1" stroke-width="1" stroke-linecap="square" stroke-linejoin="bevel" transform="matrix(1.99323,0,0,1.99323,0.00239187,95.4976)"
font-family="Ubuntu" font-size="11" font-weight="400" font-style="normal" 
>
</g>

<g fill="none" stroke="#000000" stroke-opacity="1" stroke-width="1" stroke-linecap="square" stroke-linejoin="bevel" transform="matrix(1.99323,0,0,1.99323,0.00239187,95.4976)"
font-family="Ubuntu" font-size="11" font-weight="400" font-style="normal" 
>
</g>

<g fill="none" stroke="#000000" stroke-opacity="1" stroke-width="1" stroke-linecap="square" stroke-linejoin="round" transform="matrix(1.99323,0,0,1.99323,0.00239187,95.4976)"
font-family="Ubuntu" font-size="11" font-weight="400" font-style="normal" 
>
<ellipse cx="461.23" cy="-29.911" rx="48.244" ry="17.5"/>
</g>

<g fill="none" stroke="#000000" stroke-opacity="1" stroke-width="1" stroke-linecap="square" stroke-linejoin="bevel" transform="matrix(1.99323,0,0,1.99323,0.00239187,95.4976)"
font-family="Ubuntu" font-size="11" font-weight="400" font-style="normal" 
>
</g>

<g fill="none" stroke="#000000" stroke-opacity="1" stroke-width="1" stroke-linecap="square" stroke-linejoin="bevel" transform="matrix(1.99323,0,0,1.99323,860.477,21.9255)"
font-family="Ubuntu" font-size="11" font-weight="400" font-style="normal" 
>
</g>

<g fill="none" stroke="#000000" stroke-opacity="1" stroke-width="1" stroke-linecap="square" stroke-linejoin="bevel" transform="matrix(1.99323,0,0,1.99323,860.477,21.9255)"
font-family="sans" font-size="11" font-weight="100" font-style="normal" 
>
</g>

<g fill="#000000" fill-opacity="1" stroke="#000000" stroke-opacity="1" stroke-width="1" stroke-linecap="square" stroke-linejoin="round" transform="matrix(1.99323,0,0,1.99323,860.477,21.9255)"
font-family="sans" font-size="11" font-weight="100" font-style="normal" 
>
<path vector-effect="none" fill-rule="nonzero" d="M2.79688,2.98438 L3.70313,2.98438 L0.90625,12.0156 L0,12.0156 L2.79688,2.98438 M5.70313,10.0938 L5.70313,13.2813 L4.70313,13.2813 L4.70313,4.98438 L5.70313,4.98438 L5.70313,5.89063 C5.90104,5.53646 6.15885,5.27344 6.47656,5.10156 C6.79427,4.92969 7.17708,4.84375 7.625,4.84375 C8.35417,4.84375 8.94531,5.13281 9.39844,5.71094 C9.85156,6.28906 10.0781,7.05208 10.0781,8 C10.0781,8.94792 9.85156,9.71094 9.39844,10.2891 C8.94531,10.8672 8.35417,11.1563 7.625,11.1563 C7.17708,11.1563 6.79427,11.0703 6.47656,10.8984 C6.15885,10.7266 5.90104,10.4583 5.70313,10.0938 M9.0625,8 C9.0625,7.27083 8.91146,6.70052 8.60938,6.28906 C8.30729,5.8776 7.89583,5.67188 7.375,5.67188 C6.85417,5.67188 6.44531,5.8776 6.14844,6.28906 C5.85156,6.70052 5.70313,7.27083 5.70313,8 C5.70313,8.72917 5.85156,9.29948 6.14844,9.71094 C6.44531,10.1224 6.85417,10.3281 7.375,10.3281 C7.89583,10.3281 8.30729,10.1224 8.60938,9.71094 C8.91146,9.29948 9.0625,8.72917 9.0625,8 M15.1875,5.90625 C15.0833,5.84375 14.9661,5.79688 14.8359,5.76563 C14.7057,5.73438 14.5625,5.71875 14.4063,5.71875 C13.8438,5.71875 13.4141,5.90104 13.1172,6.26563 C12.8203,6.63021 12.6719,7.15104 12.6719,7.82813 L12.6719,11 L11.6719,11 L11.6719,4.98438 L12.6719,4.98438 L12.6719,5.92188 C12.8698,5.55729 13.1354,5.28646 13.4688,5.10938 C13.8021,4.93229 14.2083,4.84375 14.6875,4.84375 C14.7604,4.84375 14.8359,4.84635 14.9141,4.85156 C14.9922,4.85677 15.0833,4.86979 15.1875,4.89063 L15.1875,5.90625 M21.375,7.75 L21.375,8.23438 L16.8281,8.23438 C16.8698,8.91146 17.0729,9.42708 17.4375,9.78125 C17.8021,10.1354 18.3125,10.3125 18.9688,10.3125 C19.3542,10.3125 19.724,10.2656 20.0781,10.1719 C20.4323,10.0781 20.7865,9.94271 21.1406,9.76563 L21.1406,10.6875 C20.7865,10.8438 20.4219,10.9609 20.0469,11.0391 C19.6719,11.1172 19.2969,11.1563 18.9219,11.1563 C17.9531,11.1563 17.1901,10.8776 16.6328,10.3203 C16.0755,9.76302 15.7969,9.00521 15.7969,8.04688 C15.7969,7.06771 16.0625,6.28906 16.5938,5.71094 C17.125,5.13281 17.8438,4.84375 18.75,4.84375 C19.5521,4.84375 20.1901,5.10417 20.6641,5.625 C21.138,6.14583 21.375,6.85417 21.375,7.75 M20.375,7.45313 C20.375,6.91146 20.2266,6.47917 19.9297,6.15625 C19.6328,5.83333 19.2396,5.67188 18.75,5.67188 C18.1979,5.67188 17.7578,5.82813 17.4297,6.14063 C17.1016,6.45313 16.9115,6.89063 16.8594,7.45313 L20.375,7.45313 M26.9531,5.89063 L26.9531,2.64063 L27.9375,2.64063 L27.9375,11 L26.9531,11 L26.9531,10.0938 C26.7448,10.4583 26.4818,10.7266 26.1641,10.8984 C25.8464,11.0703 25.4635,11.1563 25.0156,11.1563 C24.2969,11.1563 23.7083,10.8672 23.25,10.2891 C22.7917,9.71094 22.5625,8.94792 22.5625,8 C22.5625,7.05208 22.7917,6.28906 23.25,5.71094 C23.7083,5.13281 24.2969,4.84375 25.0156,4.84375 C25.4635,4.84375 25.8464,4.92969 26.1641,5.10156 C26.4818,5.27344 26.7448,5.53646 26.9531,5.89063 M23.5781,8 C23.5781,8.72917 23.7292,9.29948 24.0313,9.71094 C24.3333,10.1224 24.7448,10.3281 25.2656,10.3281 C25.7865,10.3281 26.1979,10.1224 26.5,9.71094 C26.8021,9.29948 26.9531,8.72917 26.9531,8 C26.9531,7.27083 26.8021,6.70052 26.5,6.28906 C26.1979,5.8776 25.7865,5.67188 25.2656,5.67188 C24.7448,5.67188 24.3333,5.8776 24.0313,6.28906 C23.7292,6.70052 23.5781,7.27083 23.5781,8 M29.9531,4.98438 L30.9531,4.98438 L30.9531,11 L29.9531,11 L29.9531,4.98438 M29.9531,2.64063 L30.9531,2.64063 L30.9531,3.89063 L29.9531,3.89063 L29.9531,2.64063 M37.3281,5.21875 L37.3281,6.14063 C37.0573,5.98438 36.7813,5.86719 36.5,5.78906 C36.2188,5.71094 35.9323,5.67188 35.6406,5.67188 C35.0052,5.67188 34.5104,5.875 34.1563,6.28125 C33.8021,6.6875 33.625,7.26042 33.625,8 C33.625,8.72917 33.8021,9.29688 34.1563,9.70313 C34.5104,10.1094 35.0052,10.3125 35.6406,10.3125 C35.9323,10.3125 36.2188,10.276 36.5,10.2031 C36.7813,10.1302 37.0573,10.0156 37.3281,9.85938 L37.3281,10.7656 C37.0573,10.901 36.7734,11 36.4766,11.0625 C36.1797,11.125 35.8646,11.1563 35.5313,11.1563 C34.625,11.1563 33.9063,10.8724 33.375,10.3047 C32.8438,9.73698 32.5781,8.96875 32.5781,8 C32.5781,7.02083 32.8464,6.25 33.3828,5.6875 C33.9193,5.125 34.6563,4.84375 35.5938,4.84375 C35.9063,4.84375 36.2057,4.875 36.4922,4.9375 C36.7786,5 37.0573,5.09375 37.3281,5.21875 M40.0313,3.28125 L40.0313,4.98438 L42.0625,4.98438 L42.0625,5.75 L40.0313,5.75 L40.0313,9.01563 C40.0313,9.50521 40.099,9.82031 40.2344,9.96094 C40.3698,10.1016 40.6406,10.1719 41.0469,10.1719 L42.0625,10.1719 L42.0625,11 L41.0469,11 C40.2865,11 39.7604,10.8568 39.4688,10.5703 C39.1771,10.2839 39.0313,9.76563 39.0313,9.01563 L39.0313,5.75 L38.3125,5.75 L38.3125,4.98438 L39.0313,4.98438 L39.0313,3.28125 L40.0313,3.28125 M43.3594,4.98438 L44.3594,4.98438 L44.3594,11 L43.3594,11 L43.3594,4.98438 M43.3594,2.64063 L44.3594,2.64063 L44.3594,3.89063 L43.3594,3.89063 L43.3594,2.64063 M48.75,5.67188 C48.2188,5.67188 47.7995,5.88021 47.4922,6.29688 C47.1849,6.71354 47.0313,7.28125 47.0313,8 C47.0313,8.71875 47.1823,9.28385 47.4844,9.69531 C47.7865,10.1068 48.2083,10.3125 48.75,10.3125 C49.2708,10.3125 49.6849,10.1068 49.9922,9.69531 C50.2995,9.28385 50.4531,8.71875 50.4531,8 C50.4531,7.28125 50.2995,6.71354 49.9922,6.29688 C49.6849,5.88021 49.2708,5.67188 48.75,5.67188 M48.75,4.84375 C49.6042,4.84375 50.276,5.1224 50.7656,5.67969 C51.2552,6.23698 51.5,7.01042 51.5,8 C51.5,8.97917 51.2552,9.75 50.7656,10.3125 C50.276,10.875 49.6042,11.1563 48.75,11.1563 C47.8854,11.1563 47.2083,10.875 46.7188,10.3125 C46.2292,9.75 45.9844,8.97917 45.9844,8 C45.9844,7.01042 46.2292,6.23698 46.7188,5.67969 C47.2083,5.1224 47.8854,4.84375 48.75,4.84375 M58.125,7.375 L58.125,11 L57.1406,11 L57.1406,7.40625 C57.1406,6.83333 57.0313,6.40625 56.8125,6.125 C56.5938,5.84375 56.2604,5.70313 55.8125,5.70313 C55.2813,5.70313 54.862,5.8724 54.5547,6.21094 C54.2474,6.54948 54.0938,7.01042 54.0938,7.59375 L54.0938,11 L53.0938,11 L53.0938,4.98438 L54.0938,4.98438 L54.0938,5.92188 C54.3229,5.55729 54.599,5.28646 54.9219,5.10938 C55.2448,4.93229 55.6146,4.84375 56.0313,4.84375 C56.7188,4.84375 57.2396,5.05729 57.5938,5.48438 C57.9479,5.91146 58.125,6.54167 58.125,7.375 "/>
</g>

<g fill="none" stroke="#000000" stroke-opacity="1" stroke-width="1" stroke-linecap="square" stroke-linejoin="bevel" transform="matrix(1.99323,0,0,1.99323,860.477,21.9255)"
font-family="sans" font-size="11" font-weight="100" font-style="normal" 
>
</g>

<g fill="none" stroke="#000000" stroke-opacity="1" stroke-width="1" stroke-linecap="square" stroke-linejoin="bevel" transform="matrix(1.99323,0,0,1.99323,860.477,21.9255)"
font-family="Ubuntu" font-size="11" font-weight="400" font-style="normal" 
>
</g>

<g fill="none" stroke="#000000" stroke-opacity="1" stroke-width="1" stroke-linecap="square" stroke-linejoin="bevel" transform="matrix(1.99323,0,0,1.99323,0.00239187,95.4976)"
font-family="Ubuntu" font-size="11" font-weight="400" font-style="normal" 
>
</g>

<g fill="none" stroke="#000000" stroke-opacity="1" stroke-width="1" stroke-linecap="square" stroke-linejoin="bevel" transform="matrix(1.99323,0,0,1.99323,0.00239187,95.4976)"
font-family="Ubuntu" font-size="11" font-weight="400" font-style="normal" 
>
</g>

<g fill="none" stroke="#000000" stroke-opacity="1" stroke-width="1" stroke-linecap="square" stroke-linejoin="bevel" transform="matrix(1.99323,0,0,1.99323,0.00239187,95.4976)"
font-family="Ubuntu" font-size="11" font-weight="400" font-style="normal" 
>
</g>

<g fill="none" stroke="#000000" stroke-opacity="1" stroke-width="1" stroke-linecap="square" stroke-linejoin="round" transform="matrix(1.99323,0,0,1.99323,0.00239187,95.4976)"
font-family="Ubuntu" font-size="11" font-weight="400" font-style="normal" 
>
<ellipse cx="68.244" cy="-29.911" rx="67.7452" ry="17.5"/>
</g>

<g fill="none" stroke="#000000" stroke-opacity="1" stroke-width="1" stroke-linecap="square" stroke-linejoin="bevel" transform="matrix(1.99323,0,0,1.99323,0.00239187,95.4976)"
font-family="Ubuntu" font-size="11" font-weight="400" font-style="normal" 
>
</g>

<g fill="none" stroke="#000000" stroke-opacity="1" stroke-width="1" stroke-linecap="square" stroke-linejoin="bevel" transform="matrix(1.99323,0,0,1.99323,45.5232,21.9255)"
font-family="Ubuntu" font-size="11" font-weight="400" font-style="normal" 
>
</g>

<g fill="none" stroke="#000000" stroke-opacity="1" stroke-width="1" stroke-linecap="square" stroke-linejoin="bevel" transform="matrix(1.99323,0,0,1.99323,45.5232,21.9255)"
font-family="sans" font-size="11" font-weight="100" font-style="normal" 
>
</g>

<g fill="#000000" fill-opacity="1" stroke="#000000" stroke-opacity="1" stroke-width="1" stroke-linecap="square" stroke-linejoin="round" transform="matrix(1.99323,0,0,1.99323,45.5232,21.9255)"
font-family="sans" font-size="11" font-weight="100" font-style="normal" 
>
<path vector-effect="none" fill-rule="nonzero" d="M2.79688,2.98438 L3.70313,2.98438 L0.90625,12.0156 L0,12.0156 L2.79688,2.98438 M9.0625,5.21875 L9.0625,6.14063 C8.79167,5.98438 8.51563,5.86719 8.23438,5.78906 C7.95313,5.71094 7.66667,5.67188 7.375,5.67188 C6.73958,5.67188 6.24479,5.875 5.89063,6.28125 C5.53646,6.6875 5.35938,7.26042 5.35938,8 C5.35938,8.72917 5.53646,9.29688 5.89063,9.70313 C6.24479,10.1094 6.73958,10.3125 7.375,10.3125 C7.66667,10.3125 7.95313,10.276 8.23438,10.2031 C8.51563,10.1302 8.79167,10.0156 9.0625,9.85938 L9.0625,10.7656 C8.79167,10.901 8.50781,11 8.21094,11.0625 C7.91406,11.125 7.59896,11.1563 7.26563,11.1563 C6.35938,11.1563 5.64063,10.8724 5.10938,10.3047 C4.57813,9.73698 4.3125,8.96875 4.3125,8 C4.3125,7.02083 4.58073,6.25 5.11719,5.6875 C5.65365,5.125 6.39063,4.84375 7.32813,4.84375 C7.64063,4.84375 7.9401,4.875 8.22656,4.9375 C8.51302,5 8.79167,5.09375 9.0625,5.21875 M13.5156,7.96875 C12.724,7.96875 12.1745,8.0625 11.8672,8.25 C11.5599,8.4375 11.4063,8.75 11.4063,9.1875 C11.4063,9.53125 11.5208,9.80729 11.75,10.0156 C11.9792,10.224 12.2917,10.3281 12.6875,10.3281 C13.2396,10.3281 13.6797,10.1328 14.0078,9.74219 C14.3359,9.35156 14.5,8.83854 14.5,8.20313 L14.5,7.96875 L13.5156,7.96875 M15.4844,7.5625 L15.4844,11 L14.5,11 L14.5,10.0938 C14.2813,10.4583 14.0026,10.7266 13.6641,10.8984 C13.3255,11.0703 12.9115,11.1563 12.4219,11.1563 C11.8073,11.1563 11.3177,10.9844 10.9531,10.6406 C10.5885,10.2969 10.4063,9.83333 10.4063,9.25 C10.4063,8.57292 10.6328,8.0625 11.0859,7.71875 C11.5391,7.375 12.2188,7.20313 13.125,7.20313 L14.5,7.20313 L14.5,7.10938 C14.5,6.65104 14.3516,6.29688 14.0547,6.04688 C13.7578,5.79688 13.3385,5.67188 12.7969,5.67188 C12.4531,5.67188 12.1172,5.71354 11.7891,5.79688 C11.4609,5.88021 11.1458,6.00521 10.8438,6.17188 L10.8438,5.26563 C11.2083,5.11979 11.5625,5.01302 11.9063,4.94531 C12.25,4.8776 12.5781,4.84375 12.8906,4.84375 C13.7656,4.84375 14.4167,5.06771 14.8438,5.51563 C15.2708,5.96354 15.4844,6.64583 15.4844,7.5625 M22.2031,6.14063 C22.4531,5.69271 22.75,5.36458 23.0938,5.15625 C23.4375,4.94792 23.8438,4.84375 24.3125,4.84375 C24.9375,4.84375 25.4193,5.0625 25.7578,5.5 C26.0964,5.9375 26.2656,6.5625 26.2656,7.375 L26.2656,11 L25.2656,11 L25.2656,7.40625 C25.2656,6.82292 25.1641,6.39323 24.9609,6.11719 C24.7578,5.84115 24.4479,5.70313 24.0313,5.70313 C23.5208,5.70313 23.1172,5.8724 22.8203,6.21094 C22.5234,6.54948 22.375,7.01042 22.375,7.59375 L22.375,11 L21.375,11 L21.375,7.40625 C21.375,6.82292 21.2734,6.39323 21.0703,6.11719 C20.8672,5.84115 20.5521,5.70313 20.125,5.70313 C19.625,5.70313 19.2266,5.8724 18.9297,6.21094 C18.6328,6.54948 18.4844,7.01042 18.4844,7.59375 L18.4844,11 L17.4844,11 L17.4844,4.98438 L18.4844,4.98438 L18.4844,5.92188 C18.7031,5.54688 18.9714,5.27344 19.2891,5.10156 C19.6068,4.92969 19.9792,4.84375 20.4063,4.84375 C20.8438,4.84375 21.2161,4.95313 21.5234,5.17188 C21.8307,5.39063 22.0573,5.71354 22.2031,6.14063 M33.375,7.75 L33.375,8.23438 L28.8281,8.23438 C28.8698,8.91146 29.0729,9.42708 29.4375,9.78125 C29.8021,10.1354 30.3125,10.3125 30.9688,10.3125 C31.3542,10.3125 31.724,10.2656 32.0781,10.1719 C32.4323,10.0781 32.7865,9.94271 33.1406,9.76563 L33.1406,10.6875 C32.7865,10.8438 32.4219,10.9609 32.0469,11.0391 C31.6719,11.1172 31.2969,11.1563 30.9219,11.1563 C29.9531,11.1563 29.1901,10.8776 28.6328,10.3203 C28.0755,9.76302 27.7969,9.00521 27.7969,8.04688 C27.7969,7.06771 28.0625,6.28906 28.5938,5.71094 C29.125,5.13281 29.8438,4.84375 30.75,4.84375 C31.5521,4.84375 32.1901,5.10417 32.6641,5.625 C33.138,6.14583 33.375,6.85417 33.375,7.75 M32.375,7.45313 C32.375,6.91146 32.2266,6.47917 31.9297,6.15625 C31.6328,5.83333 31.2396,5.67188 30.75,5.67188 C30.1979,5.67188 29.7578,5.82813 29.4297,6.14063 C29.1016,6.45313 28.9115,6.89063 28.8594,7.45313 L32.375,7.45313 M38.4688,5.90625 C38.3646,5.84375 38.2474,5.79688 38.1172,5.76563 C37.987,5.73438 37.8438,5.71875 37.6875,5.71875 C37.125,5.71875 36.6953,5.90104 36.3984,6.26563 C36.1016,6.63021 35.9531,7.15104 35.9531,7.82813 L35.9531,11 L34.9531,11 L34.9531,4.98438 L35.9531,4.98438 L35.9531,5.92188 C36.151,5.55729 36.4167,5.28646 36.75,5.10938 C37.0833,4.93229 37.4896,4.84375 37.9688,4.84375 C38.0417,4.84375 38.1172,4.84635 38.1953,4.85156 C38.2734,4.85677 38.3646,4.86979 38.4688,4.89063 L38.4688,5.90625 M42.2344,7.96875 C41.4427,7.96875 40.8932,8.0625 40.5859,8.25 C40.2786,8.4375 40.125,8.75 40.125,9.1875 C40.125,9.53125 40.2396,9.80729 40.4688,10.0156 C40.6979,10.224 41.0104,10.3281 41.4063,10.3281 C41.9583,10.3281 42.3984,10.1328 42.7266,9.74219 C43.0547,9.35156 43.2188,8.83854 43.2188,8.20313 L43.2188,7.96875 L42.2344,7.96875 M44.2031,7.5625 L44.2031,11 L43.2188,11 L43.2188,10.0938 C43,10.4583 42.7214,10.7266 42.3828,10.8984 C42.0443,11.0703 41.6302,11.1563 41.1406,11.1563 C40.526,11.1563 40.0365,10.9844 39.6719,10.6406 C39.3073,10.2969 39.125,9.83333 39.125,9.25 C39.125,8.57292 39.3516,8.0625 39.8047,7.71875 C40.2578,7.375 40.9375,7.20313 41.8438,7.20313 L43.2188,7.20313 L43.2188,7.10938 C43.2188,6.65104 43.0703,6.29688 42.7734,6.04688 C42.4766,5.79688 42.0573,5.67188 41.5156,5.67188 C41.1719,5.67188 40.8359,5.71354 40.5078,5.79688 C40.1797,5.88021 39.8646,6.00521 39.5625,6.17188 L39.5625,5.26563 C39.9271,5.11979 40.2813,5.01302 40.625,4.94531 C40.9688,4.8776 41.2969,4.84375 41.6094,4.84375 C42.4844,4.84375 43.1354,5.06771 43.5625,5.51563 C43.9896,5.96354 44.2031,6.64583 44.2031,7.5625 M50.8125,12.8281 L50.8125,13.5938 L45.0938,13.5938 L45.0938,12.8281 L50.8125,12.8281 M52.7031,10.0938 L52.7031,13.2813 L51.7031,13.2813 L51.7031,4.98438 L52.7031,4.98438 L52.7031,5.89063 C52.901,5.53646 53.1589,5.27344 53.4766,5.10156 C53.7943,4.92969 54.1771,4.84375 54.625,4.84375 C55.3542,4.84375 55.9453,5.13281 56.3984,5.71094 C56.8516,6.28906 57.0781,7.05208 57.0781,8 C57.0781,8.94792 56.8516,9.71094 56.3984,10.2891 C55.9453,10.8672 55.3542,11.1563 54.625,11.1563 C54.1771,11.1563 53.7943,11.0703 53.4766,10.8984 C53.1589,10.7266 52.901,10.4583 52.7031,10.0938 M56.0625,8 C56.0625,7.27083 55.9115,6.70052 55.6094,6.28906 C55.3073,5.8776 54.8958,5.67188 54.375,5.67188 C53.8542,5.67188 53.4453,5.8776 53.1484,6.28906 C52.8516,6.70052 52.7031,7.27083 52.7031,8 C52.7031,8.72917 52.8516,9.29948 53.1484,9.71094 C53.4453,10.1224 53.8542,10.3281 54.375,10.3281 C54.8958,10.3281 55.3073,10.1224 55.6094,9.71094 C55.9115,9.29948 56.0625,8.72917 56.0625,8 M62.5469,5.15625 L62.5469,6.09375 C62.2656,5.94792 61.974,5.84115 61.6719,5.77344 C61.3698,5.70573 61.0573,5.67188 60.7344,5.67188 C60.2448,5.67188 59.8776,5.7474 59.6328,5.89844 C59.388,6.04948 59.2656,6.27083 59.2656,6.5625 C59.2656,6.79167 59.3542,6.97135 59.5313,7.10156 C59.7083,7.23177 60.0625,7.35938 60.5938,7.48438 L60.9219,7.5625 C61.6302,7.70833 62.1302,7.91927 62.4219,8.19531 C62.7135,8.47135 62.8594,8.85417 62.8594,9.34375 C62.8594,9.89583 62.6406,10.3359 62.2031,10.6641 C61.7656,10.9922 61.1563,11.1563 60.375,11.1563 C60.0521,11.1563 59.7161,11.125 59.3672,11.0625 C59.0182,11 58.651,10.9063 58.2656,10.7813 L58.2656,9.76563 C58.6302,9.95313 58.9896,10.0938 59.3438,10.1875 C59.6979,10.2813 60.0521,10.3281 60.4063,10.3281 C60.8646,10.3281 61.2188,10.2474 61.4688,10.0859 C61.7188,9.92448 61.8438,9.70313 61.8438,9.42188 C61.8438,9.15104 61.7552,8.94271 61.5781,8.79688 C61.401,8.65104 61.0052,8.51563 60.3906,8.39063 L60.0469,8.29688 C59.4323,8.17188 58.9896,7.97656 58.7188,7.71094 C58.4479,7.44531 58.3125,7.07813 58.3125,6.60938 C58.3125,6.04688 58.513,5.61198 58.9141,5.30469 C59.3151,4.9974 59.8854,4.84375 60.625,4.84375 C60.9896,4.84375 61.3333,4.86979 61.6563,4.92188 C61.9792,4.97396 62.276,5.05208 62.5469,5.15625 M69.5781,7.75 L69.5781,8.23438 L65.0313,8.23438 C65.0729,8.91146 65.276,9.42708 65.6406,9.78125 C66.0052,10.1354 66.5156,10.3125 67.1719,10.3125 C67.5573,10.3125 67.9271,10.2656 68.2813,10.1719 C68.6354,10.0781 68.9896,9.94271 69.3438,9.76563 L69.3438,10.6875 C68.9896,10.8438 68.625,10.9609 68.25,11.0391 C67.875,11.1172 67.5,11.1563 67.125,11.1563 C66.1563,11.1563 65.3932,10.8776 64.8359,10.3203 C64.2786,9.76302 64,9.00521 64,8.04688 C64,7.06771 64.2656,6.28906 64.7969,5.71094 C65.3281,5.13281 66.0469,4.84375 66.9531,4.84375 C67.7552,4.84375 68.3932,5.10417 68.8672,5.625 C69.3411,6.14583 69.5781,6.85417 69.5781,7.75 M68.5781,7.45313 C68.5781,6.91146 68.4297,6.47917 68.1328,6.15625 C67.8359,5.83333 67.4427,5.67188 66.9531,5.67188 C66.401,5.67188 65.9609,5.82813 65.6328,6.14063 C65.3047,6.45313 65.1146,6.89063 65.0625,7.45313 L68.5781,7.45313 M71.0938,8.625 L71.0938,4.98438 L72.0781,4.98438 L72.0781,8.59375 C72.0781,9.15625 72.1901,9.58073 72.4141,9.86719 C72.638,10.1536 72.9688,10.2969 73.4063,10.2969 C73.9479,10.2969 74.3724,10.1276 74.6797,9.78906 C74.987,9.45052 75.1406,8.98438 75.1406,8.39063 L75.1406,4.98438 L76.125,4.98438 L76.125,11 L75.1406,11 L75.1406,10.0781 C74.901,10.4427 74.6224,10.7135 74.3047,10.8906 C73.987,11.0677 73.6198,11.1563 73.2031,11.1563 C72.5156,11.1563 71.9922,10.9401 71.6328,10.5078 C71.2734,10.0755 71.0938,9.44792 71.0938,8.625 M82.125,5.89063 L82.125,2.64063 L83.1094,2.64063 L83.1094,11 L82.125,11 L82.125,10.0938 C81.9167,10.4583 81.6536,10.7266 81.3359,10.8984 C81.0182,11.0703 80.6354,11.1563 80.1875,11.1563 C79.4688,11.1563 78.8802,10.8672 78.4219,10.2891 C77.9635,9.71094 77.7344,8.94792 77.7344,8 C77.7344,7.05208 77.9635,6.28906 78.4219,5.71094 C78.8802,5.13281 79.4688,4.84375 80.1875,4.84375 C80.6354,4.84375 81.0182,4.92969 81.3359,5.10156 C81.6536,5.27344 81.9167,5.53646 82.125,5.89063 M78.75,8 C78.75,8.72917 78.901,9.29948 79.2031,9.71094 C79.5052,10.1224 79.9167,10.3281 80.4375,10.3281 C80.9583,10.3281 81.3698,10.1224 81.6719,9.71094 C81.974,9.29948 82.125,8.72917 82.125,8 C82.125,7.27083 81.974,6.70052 81.6719,6.28906 C81.3698,5.8776 80.9583,5.67188 80.4375,5.67188 C79.9167,5.67188 79.5052,5.8776 79.2031,6.28906 C78.901,6.70052 78.75,7.27083 78.75,8 M87.4688,5.67188 C86.9375,5.67188 86.5182,5.88021 86.2109,6.29688 C85.9036,6.71354 85.75,7.28125 85.75,8 C85.75,8.71875 85.901,9.28385 86.2031,9.69531 C86.5052,10.1068 86.9271,10.3125 87.4688,10.3125 C87.9896,10.3125 88.4036,10.1068 88.7109,9.69531 C89.0182,9.28385 89.1719,8.71875 89.1719,8 C89.1719,7.28125 89.0182,6.71354 88.7109,6.29688 C88.4036,5.88021 87.9896,5.67188 87.4688,5.67188 M87.4688,4.84375 C88.3229,4.84375 88.9948,5.1224 89.4844,5.67969 C89.974,6.23698 90.2188,7.01042 90.2188,8 C90.2188,8.97917 89.974,9.75 89.4844,10.3125 C88.9948,10.875 88.3229,11.1563 87.4688,11.1563 C86.6042,11.1563 85.9271,10.875 85.4375,10.3125 C84.9479,9.75 84.7031,8.97917 84.7031,8 C84.7031,7.01042 84.9479,6.23698 85.4375,5.67969 C85.9271,5.1224 86.6042,4.84375 87.4688,4.84375 "/>
</g>

<g fill="none" stroke="#000000" stroke-opacity="1" stroke-width="1" stroke-linecap="square" stroke-linejoin="bevel" transform="matrix(1.99323,0,0,1.99323,45.5232,21.9255)"
font-family="sans" font-size="11" font-weight="100" font-style="normal" 
>
</g>

<g fill="none" stroke="#000000" stroke-opacity="1" stroke-width="1" stroke-linecap="square" stroke-linejoin="bevel" transform="matrix(1.99323,0,0,1.99323,45.5232,21.9255)"
font-family="Ubuntu" font-size="11" font-weight="400" font-style="normal" 
>
</g>

<g fill="none" stroke="#000000" stroke-opacity="1" stroke-width="1" stroke-linecap="square" stroke-linejoin="bevel" transform="matrix(1.99323,0,0,1.99323,0.00239187,95.4976)"
font-family="Ubuntu" font-size="11" font-weight="400" font-style="normal" 
>
</g>

<g fill="none" stroke="#000000" stroke-opacity="1" stroke-width="1" stroke-linecap="square" stroke-linejoin="bevel" transform="matrix(1.99323,0,0,1.99323,0.00239187,95.4976)"
font-family="Ubuntu" font-size="11" font-weight="400" font-style="normal" 
>
</g>

<g fill="none" stroke="#000000" stroke-opacity="1" stroke-width="1" stroke-linecap="square" stroke-linejoin="bevel" transform="matrix(1.99323,0,0,1.99323,0.00239187,95.4976)"
font-family="Ubuntu" font-size="11" font-weight="400" font-style="normal" 
>
</g>

<g fill="none" stroke="#000000" stroke-opacity="1" stroke-width="1" stroke-linecap="square" stroke-linejoin="round" transform="matrix(1.99323,0,0,1.99323,0.00239187,95.4976)"
font-family="Ubuntu" font-size="11" font-weight="400" font-style="normal" 
>
<path vector-effect="none" fill-rule="evenodd" d="M136.7,-29.911 C211.84,-29.911 331.23,-29.911 402.34,-29.911 "/>
</g>

<g fill="none" stroke="#000000" stroke-opacity="1" stroke-width="1" stroke-linecap="square" stroke-linejoin="bevel" transform="matrix(1.99323,0,0,1.99323,0.00239187,95.4976)"
font-family="Ubuntu" font-size="11" font-weight="400" font-style="normal" 
>
</g>

<g fill="none" stroke="#000000" stroke-opacity="1" stroke-width="1" stroke-linecap="square" stroke-linejoin="bevel" transform="matrix(1.99323,0,0,1.99323,286.229,6.9763)"
font-family="Ubuntu" font-size="11" font-weight="400" font-style="normal" 
>
</g>

<g fill="none" stroke="#000000" stroke-opacity="1" stroke-width="1" stroke-linecap="square" stroke-linejoin="bevel" transform="matrix(1.99323,0,0,1.99323,286.229,6.9763)"
font-family="sans" font-size="11" font-weight="100" font-style="normal" 
>
</g>

<g fill="#000000" fill-opacity="1" stroke="#000000" stroke-opacity="1" stroke-width="1" stroke-linecap="square" stroke-linejoin="round" transform="matrix(1.99323,0,0,1.99323,286.229,6.9763)"
font-family="sans" font-size="11" font-weight="100" font-style="normal" 
>
<path vector-effect="none" fill-rule="nonzero" d="M2.79688,2.98438 L3.70313,2.98438 L0.90625,12.0156 L0,12.0156 L2.79688,2.98438 M9.0625,5.21875 L9.0625,6.14063 C8.79167,5.98438 8.51563,5.86719 8.23438,5.78906 C7.95313,5.71094 7.66667,5.67188 7.375,5.67188 C6.73958,5.67188 6.24479,5.875 5.89063,6.28125 C5.53646,6.6875 5.35938,7.26042 5.35938,8 C5.35938,8.72917 5.53646,9.29688 5.89063,9.70313 C6.24479,10.1094 6.73958,10.3125 7.375,10.3125 C7.66667,10.3125 7.95313,10.276 8.23438,10.2031 C8.51563,10.1302 8.79167,10.0156 9.0625,9.85938 L9.0625,10.7656 C8.79167,10.901 8.50781,11 8.21094,11.0625 C7.91406,11.125 7.59896,11.1563 7.26563,11.1563 C6.35938,11.1563 5.64063,10.8724 5.10938,10.3047 C4.57813,9.73698 4.3125,8.96875 4.3125,8 C4.3125,7.02083 4.58073,6.25 5.11719,5.6875 C5.65365,5.125 6.39063,4.84375 7.32813,4.84375 C7.64063,4.84375 7.9401,4.875 8.22656,4.9375 C8.51302,5 8.79167,5.09375 9.0625,5.21875 M13.5156,7.96875 C12.724,7.96875 12.1745,8.0625 11.8672,8.25 C11.5599,8.4375 11.4063,8.75 11.4063,9.1875 C11.4063,9.53125 11.5208,9.80729 11.75,10.0156 C11.9792,10.224 12.2917,10.3281 12.6875,10.3281 C13.2396,10.3281 13.6797,10.1328 14.0078,9.74219 C14.3359,9.35156 14.5,8.83854 14.5,8.20313 L14.5,7.96875 L13.5156,7.96875 M15.4844,7.5625 L15.4844,11 L14.5,11 L14.5,10.0938 C14.2813,10.4583 14.0026,10.7266 13.6641,10.8984 C13.3255,11.0703 12.9115,11.1563 12.4219,11.1563 C11.8073,11.1563 11.3177,10.9844 10.9531,10.6406 C10.5885,10.2969 10.4063,9.83333 10.4063,9.25 C10.4063,8.57292 10.6328,8.0625 11.0859,7.71875 C11.5391,7.375 12.2188,7.20313 13.125,7.20313 L14.5,7.20313 L14.5,7.10938 C14.5,6.65104 14.3516,6.29688 14.0547,6.04688 C13.7578,5.79688 13.3385,5.67188 12.7969,5.67188 C12.4531,5.67188 12.1172,5.71354 11.7891,5.79688 C11.4609,5.88021 11.1458,6.00521 10.8438,6.17188 L10.8438,5.26563 C11.2083,5.11979 11.5625,5.01302 11.9063,4.94531 C12.25,4.8776 12.5781,4.84375 12.8906,4.84375 C13.7656,4.84375 14.4167,5.06771 14.8438,5.51563 C15.2708,5.96354 15.4844,6.64583 15.4844,7.5625 M22.2031,6.14063 C22.4531,5.69271 22.75,5.36458 23.0938,5.15625 C23.4375,4.94792 23.8438,4.84375 24.3125,4.84375 C24.9375,4.84375 25.4193,5.0625 25.7578,5.5 C26.0964,5.9375 26.2656,6.5625 26.2656,7.375 L26.2656,11 L25.2656,11 L25.2656,7.40625 C25.2656,6.82292 25.1641,6.39323 24.9609,6.11719 C24.7578,5.84115 24.4479,5.70313 24.0313,5.70313 C23.5208,5.70313 23.1172,5.8724 22.8203,6.21094 C22.5234,6.54948 22.375,7.01042 22.375,7.59375 L22.375,11 L21.375,11 L21.375,7.40625 C21.375,6.82292 21.2734,6.39323 21.0703,6.11719 C20.8672,5.84115 20.5521,5.70313 20.125,5.70313 C19.625,5.70313 19.2266,5.8724 18.9297,6.21094 C18.6328,6.54948 18.4844,7.01042 18.4844,7.59375 L18.4844,11 L17.4844,11 L17.4844,4.98438 L18.4844,4.98438 L18.4844,5.92188 C18.7031,5.54688 18.9714,5.27344 19.2891,5.10156 C19.6068,4.92969 19.9792,4.84375 20.4063,4.84375 C20.8438,4.84375 21.2161,4.95313 21.5234,5.17188 C21.8307,5.39063 22.0573,5.71354 22.2031,6.14063 M33.375,7.75 L33.375,8.23438 L28.8281,8.23438 C28.8698,8.91146 29.0729,9.42708 29.4375,9.78125 C29.8021,10.1354 30.3125,10.3125 30.9688,10.3125 C31.3542,10.3125 31.724,10.2656 32.0781,10.1719 C32.4323,10.0781 32.7865,9.94271 33.1406,9.76563 L33.1406,10.6875 C32.7865,10.8438 32.4219,10.9609 32.0469,11.0391 C31.6719,11.1172 31.2969,11.1563 30.9219,11.1563 C29.9531,11.1563 29.1901,10.8776 28.6328,10.3203 C28.0755,9.76302 27.7969,9.00521 27.7969,8.04688 C27.7969,7.06771 28.0625,6.28906 28.5938,5.71094 C29.125,5.13281 29.8438,4.84375 30.75,4.84375 C31.5521,4.84375 32.1901,5.10417 32.6641,5.625 C33.138,6.14583 33.375,6.85417 33.375,7.75 M32.375,7.45313 C32.375,6.91146 32.2266,6.47917 31.9297,6.15625 C31.6328,5.83333 31.2396,5.67188 30.75,5.67188 C30.1979,5.67188 29.7578,5.82813 29.4297,6.14063 C29.1016,6.45313 28.9115,6.89063 28.8594,7.45313 L32.375,7.45313 M38.4688,5.90625 C38.3646,5.84375 38.2474,5.79688 38.1172,5.76563 C37.987,5.73438 37.8438,5.71875 37.6875,5.71875 C37.125,5.71875 36.6953,5.90104 36.3984,6.26563 C36.1016,6.63021 35.9531,7.15104 35.9531,7.82813 L35.9531,11 L34.9531,11 L34.9531,4.98438 L35.9531,4.98438 L35.9531,5.92188 C36.151,5.55729 36.4167,5.28646 36.75,5.10938 C37.0833,4.93229 37.4896,4.84375 37.9688,4.84375 C38.0417,4.84375 38.1172,4.84635 38.1953,4.85156 C38.2734,4.85677 38.3646,4.86979 38.4688,4.89063 L38.4688,5.90625 M42.2344,7.96875 C41.4427,7.96875 40.8932,8.0625 40.5859,8.25 C40.2786,8.4375 40.125,8.75 40.125,9.1875 C40.125,9.53125 40.2396,9.80729 40.4688,10.0156 C40.6979,10.224 41.0104,10.3281 41.4063,10.3281 C41.9583,10.3281 42.3984,10.1328 42.7266,9.74219 C43.0547,9.35156 43.2188,8.83854 43.2188,8.20313 L43.2188,7.96875 L42.2344,7.96875 M44.2031,7.5625 L44.2031,11 L43.2188,11 L43.2188,10.0938 C43,10.4583 42.7214,10.7266 42.3828,10.8984 C42.0443,11.0703 41.6302,11.1563 41.1406,11.1563 C40.526,11.1563 40.0365,10.9844 39.6719,10.6406 C39.3073,10.2969 39.125,9.83333 39.125,9.25 C39.125,8.57292 39.3516,8.0625 39.8047,7.71875 C40.2578,7.375 40.9375,7.20313 41.8438,7.20313 L43.2188,7.20313 L43.2188,7.10938 C43.2188,6.65104 43.0703,6.29688 42.7734,6.04688 C42.4766,5.79688 42.0573,5.67188 41.5156,5.67188 C41.1719,5.67188 40.8359,5.71354 40.5078,5.79688 C40.1797,5.88021 39.8646,6.00521 39.5625,6.17188 L39.5625,5.26563 C39.9271,5.11979 40.2813,5.01302 40.625,4.94531 C40.9688,4.8776 41.2969,4.84375 41.6094,4.84375 C42.4844,4.84375 43.1354,5.06771 43.5625,5.51563 C43.9896,5.96354 44.2031,6.64583 44.2031,7.5625 M48,2.98438 L48.9063,2.98438 L46.1094,12.0156 L45.2031,12.0156 L48,2.98438 M52.2813,5.67188 C51.75,5.67188 51.3307,5.88021 51.0234,6.29688 C50.7161,6.71354 50.5625,7.28125 50.5625,8 C50.5625,8.71875 50.7135,9.28385 51.0156,9.69531 C51.3177,10.1068 51.7396,10.3125 52.2813,10.3125 C52.8021,10.3125 53.2161,10.1068 53.5234,9.69531 C53.8307,9.28385 53.9844,8.71875 53.9844,8 C53.9844,7.28125 53.8307,6.71354 53.5234,6.29688 C53.2161,5.88021 52.8021,5.67188 52.2813,5.67188 M52.2813,4.84375 C53.1354,4.84375 53.8073,5.1224 54.2969,5.67969 C54.7865,6.23698 55.0313,7.01042 55.0313,8 C55.0313,8.97917 54.7865,9.75 54.2969,10.3125 C53.8073,10.875 53.1354,11.1563 52.2813,11.1563 C51.4167,11.1563 50.7396,10.875 50.25,10.3125 C49.7604,9.75 49.5156,8.97917 49.5156,8 C49.5156,7.01042 49.7604,6.23698 50.25,5.67969 C50.7396,5.1224 51.4167,4.84375 52.2813,4.84375 M56.5625,8.625 L56.5625,4.98438 L57.5469,4.98438 L57.5469,8.59375 C57.5469,9.15625 57.6589,9.58073 57.8828,9.86719 C58.1068,10.1536 58.4375,10.2969 58.875,10.2969 C59.4167,10.2969 59.8411,10.1276 60.1484,9.78906 C60.4557,9.45052 60.6094,8.98438 60.6094,8.39063 L60.6094,4.98438 L61.5938,4.98438 L61.5938,11 L60.6094,11 L60.6094,10.0781 C60.3698,10.4427 60.0911,10.7135 59.7734,10.8906 C59.4557,11.0677 59.0885,11.1563 58.6719,11.1563 C57.9844,11.1563 57.4609,10.9401 57.1016,10.5078 C56.7422,10.0755 56.5625,9.44792 56.5625,8.625 M64.6094,3.28125 L64.6094,4.98438 L66.6406,4.98438 L66.6406,5.75 L64.6094,5.75 L64.6094,9.01563 C64.6094,9.50521 64.6771,9.82031 64.8125,9.96094 C64.9479,10.1016 65.2188,10.1719 65.625,10.1719 L66.6406,10.1719 L66.6406,11 L65.625,11 C64.8646,11 64.3385,10.8568 64.0469,10.5703 C63.7552,10.2839 63.6094,9.76563 63.6094,9.01563 L63.6094,5.75 L62.8906,5.75 L62.8906,4.98438 L63.6094,4.98438 L63.6094,3.28125 L64.6094,3.28125 M68.9063,10.0938 L68.9063,13.2813 L67.9063,13.2813 L67.9063,4.98438 L68.9063,4.98438 L68.9063,5.89063 C69.1042,5.53646 69.362,5.27344 69.6797,5.10156 C69.9974,4.92969 70.3802,4.84375 70.8281,4.84375 C71.5573,4.84375 72.1484,5.13281 72.6016,5.71094 C73.0547,6.28906 73.2813,7.05208 73.2813,8 C73.2813,8.94792 73.0547,9.71094 72.6016,10.2891 C72.1484,10.8672 71.5573,11.1563 70.8281,11.1563 C70.3802,11.1563 69.9974,11.0703 69.6797,10.8984 C69.362,10.7266 69.1042,10.4583 68.9063,10.0938 M72.2656,8 C72.2656,7.27083 72.1146,6.70052 71.8125,6.28906 C71.5104,5.8776 71.099,5.67188 70.5781,5.67188 C70.0573,5.67188 69.6484,5.8776 69.3516,6.28906 C69.0547,6.70052 68.9063,7.27083 68.9063,8 C68.9063,8.72917 69.0547,9.29948 69.3516,9.71094 C69.6484,10.1224 70.0573,10.3281 70.5781,10.3281 C71.099,10.3281 71.5104,10.1224 71.8125,9.71094 C72.1146,9.29948 72.2656,8.72917 72.2656,8 M74.8125,8.625 L74.8125,4.98438 L75.7969,4.98438 L75.7969,8.59375 C75.7969,9.15625 75.9089,9.58073 76.1328,9.86719 C76.3568,10.1536 76.6875,10.2969 77.125,10.2969 C77.6667,10.2969 78.0911,10.1276 78.3984,9.78906 C78.7057,9.45052 78.8594,8.98438 78.8594,8.39063 L78.8594,4.98438 L79.8438,4.98438 L79.8438,11 L78.8594,11 L78.8594,10.0781 C78.6198,10.4427 78.3411,10.7135 78.0234,10.8906 C77.7057,11.0677 77.3385,11.1563 76.9219,11.1563 C76.2344,11.1563 75.7109,10.9401 75.3516,10.5078 C74.9922,10.0755 74.8125,9.44792 74.8125,8.625 M82.8594,3.28125 L82.8594,4.98438 L84.8906,4.98438 L84.8906,5.75 L82.8594,5.75 L82.8594,9.01563 C82.8594,9.50521 82.9271,9.82031 83.0625,9.96094 C83.1979,10.1016 83.4688,10.1719 83.875,10.1719 L84.8906,10.1719 L84.8906,11 L83.875,11 C83.1146,11 82.5885,10.8568 82.2969,10.5703 C82.0052,10.2839 81.8594,9.76563 81.8594,9.01563 L81.8594,5.75 L81.1406,5.75 L81.1406,4.98438 L81.8594,4.98438 L81.8594,3.28125 L82.8594,3.28125 M87.9531,2.98438 L88.8594,2.98438 L86.0625,12.0156 L85.1563,12.0156 L87.9531,2.98438 M93.7344,5.15625 L93.7344,6.09375 C93.4531,5.94792 93.1615,5.84115 92.8594,5.77344 C92.5573,5.70573 92.2448,5.67188 91.9219,5.67188 C91.4323,5.67188 91.0651,5.7474 90.8203,5.89844 C90.5755,6.04948 90.4531,6.27083 90.4531,6.5625 C90.4531,6.79167 90.5417,6.97135 90.7188,7.10156 C90.8958,7.23177 91.25,7.35938 91.7813,7.48438 L92.1094,7.5625 C92.8177,7.70833 93.3177,7.91927 93.6094,8.19531 C93.901,8.47135 94.0469,8.85417 94.0469,9.34375 C94.0469,9.89583 93.8281,10.3359 93.3906,10.6641 C92.9531,10.9922 92.3438,11.1563 91.5625,11.1563 C91.2396,11.1563 90.9036,11.125 90.5547,11.0625 C90.2057,11 89.8385,10.9063 89.4531,10.7813 L89.4531,9.76563 C89.8177,9.95313 90.1771,10.0938 90.5313,10.1875 C90.8854,10.2813 91.2396,10.3281 91.5938,10.3281 C92.0521,10.3281 92.4063,10.2474 92.6563,10.0859 C92.9063,9.92448 93.0313,9.70313 93.0313,9.42188 C93.0313,9.15104 92.9427,8.94271 92.7656,8.79688 C92.5885,8.65104 92.1927,8.51563 91.5781,8.39063 L91.2344,8.29688 C90.6198,8.17188 90.1771,7.97656 89.9063,7.71094 C89.6354,7.44531 89.5,7.07813 89.5,6.60938 C89.5,6.04688 89.7005,5.61198 90.1016,5.30469 C90.5026,4.9974 91.0729,4.84375 91.8125,4.84375 C92.1771,4.84375 92.5208,4.86979 92.8438,4.92188 C93.1667,4.97396 93.4635,5.05208 93.7344,5.15625 M96.5781,10.0938 L96.5781,13.2813 L95.5781,13.2813 L95.5781,4.98438 L96.5781,4.98438 L96.5781,5.89063 C96.776,5.53646 97.0339,5.27344 97.3516,5.10156 C97.6693,4.92969 98.0521,4.84375 98.5,4.84375 C99.2292,4.84375 99.8203,5.13281 100.273,5.71094 C100.727,6.28906 100.953,7.05208 100.953,8 C100.953,8.94792 100.727,9.71094 100.273,10.2891 C99.8203,10.8672 99.2292,11.1563 98.5,11.1563 C98.0521,11.1563 97.6693,11.0703 97.3516,10.8984 C97.0339,10.7266 96.776,10.4583 96.5781,10.0938 M99.9375,8 C99.9375,7.27083 99.7865,6.70052 99.4844,6.28906 C99.1823,5.8776 98.7708,5.67188 98.25,5.67188 C97.7292,5.67188 97.3203,5.8776 97.0234,6.28906 C96.7266,6.70052 96.5781,7.27083 96.5781,8 C96.5781,8.72917 96.7266,9.29948 97.0234,9.71094 C97.3203,10.1224 97.7292,10.3281 98.25,10.3281 C98.7708,10.3281 99.1823,10.1224 99.4844,9.71094 C99.7865,9.29948 99.9375,8.72917 99.9375,8 M107.734,7.75 L107.734,8.23438 L103.188,8.23438 C103.229,8.91146 103.432,9.42708 103.797,9.78125 C104.161,10.1354 104.672,10.3125 105.328,10.3125 C105.714,10.3125 106.083,10.2656 106.438,10.1719 C106.792,10.0781 107.146,9.94271 107.5,9.76563 L107.5,10.6875 C107.146,10.8438 106.781,10.9609 106.406,11.0391 C106.031,11.1172 105.656,11.1563 105.281,11.1563 C104.313,11.1563 103.549,10.8776 102.992,10.3203 C102.435,9.76302 102.156,9.00521 102.156,8.04688 C102.156,7.06771 102.422,6.28906 102.953,5.71094 C103.484,5.13281 104.203,4.84375 105.109,4.84375 C105.911,4.84375 106.549,5.10417 107.023,5.625 C107.497,6.14583 107.734,6.85417 107.734,7.75 M106.734,7.45313 C106.734,6.91146 106.586,6.47917 106.289,6.15625 C105.992,5.83333 105.599,5.67188 105.109,5.67188 C104.557,5.67188 104.117,5.82813 103.789,6.14063 C103.461,6.45313 103.271,6.89063 103.219,7.45313 L106.734,7.45313 M113.672,5.21875 L113.672,6.14063 C113.401,5.98438 113.125,5.86719 112.844,5.78906 C112.563,5.71094 112.276,5.67188 111.984,5.67188 C111.349,5.67188 110.854,5.875 110.5,6.28125 C110.146,6.6875 109.969,7.26042 109.969,8 C109.969,8.72917 110.146,9.29688 110.5,9.70313 C110.854,10.1094 111.349,10.3125 111.984,10.3125 C112.276,10.3125 112.563,10.276 112.844,10.2031 C113.125,10.1302 113.401,10.0156 113.672,9.85938 L113.672,10.7656 C113.401,10.901 113.117,11 112.82,11.0625 C112.523,11.125 112.208,11.1563 111.875,11.1563 C110.969,11.1563 110.25,10.8724 109.719,10.3047 C109.188,9.73698 108.922,8.96875 108.922,8 C108.922,7.02083 109.19,6.25 109.727,5.6875 C110.263,5.125 111,4.84375 111.938,4.84375 C112.25,4.84375 112.549,4.875 112.836,4.9375 C113.122,5 113.401,5.09375 113.672,5.21875 M115.391,4.98438 L116.391,4.98438 L116.391,11 L115.391,11 L115.391,4.98438 M115.391,2.64063 L116.391,2.64063 L116.391,3.89063 L115.391,3.89063 L115.391,2.64063 M121.484,2.64063 L121.484,3.46875 L120.547,3.46875 C120.193,3.46875 119.945,3.53906 119.805,3.67969 C119.664,3.82031 119.594,4.07813 119.594,4.45313 L119.594,4.98438 L121.219,4.98438 L121.219,5.75 L119.594,5.75 L119.594,11 L118.609,11 L118.609,5.75 L117.656,5.75 L117.656,4.98438 L118.609,4.98438 L118.609,4.5625 C118.609,3.89583 118.763,3.40885 119.07,3.10156 C119.378,2.79427 119.87,2.64063 120.547,2.64063 L121.484,2.64063 M122.297,4.98438 L123.297,4.98438 L123.297,11 L122.297,11 L122.297,4.98438 M122.297,2.64063 L123.297,2.64063 L123.297,3.89063 L122.297,3.89063 L122.297,2.64063 M129.672,5.21875 L129.672,6.14063 C129.401,5.98438 129.125,5.86719 128.844,5.78906 C128.563,5.71094 128.276,5.67188 127.984,5.67188 C127.349,5.67188 126.854,5.875 126.5,6.28125 C126.146,6.6875 125.969,7.26042 125.969,8 C125.969,8.72917 126.146,9.29688 126.5,9.70313 C126.854,10.1094 127.349,10.3125 127.984,10.3125 C128.276,10.3125 128.563,10.276 128.844,10.2031 C129.125,10.1302 129.401,10.0156 129.672,9.85938 L129.672,10.7656 C129.401,10.901 129.117,11 128.82,11.0625 C128.523,11.125 128.208,11.1563 127.875,11.1563 C126.969,11.1563 126.25,10.8724 125.719,10.3047 C125.188,9.73698 124.922,8.96875 124.922,8 C124.922,7.02083 125.19,6.25 125.727,5.6875 C126.263,5.125 127,4.84375 127.938,4.84375 C128.25,4.84375 128.549,4.875 128.836,4.9375 C129.122,5 129.401,5.09375 129.672,5.21875 M133.156,2.98438 L134.063,2.98438 L131.266,12.0156 L130.359,12.0156 L133.156,2.98438 M139.422,5.21875 L139.422,6.14063 C139.151,5.98438 138.875,5.86719 138.594,5.78906 C138.313,5.71094 138.026,5.67188 137.734,5.67188 C137.099,5.67188 136.604,5.875 136.25,6.28125 C135.896,6.6875 135.719,7.26042 135.719,8 C135.719,8.72917 135.896,9.29688 136.25,9.70313 C136.604,10.1094 137.099,10.3125 137.734,10.3125 C138.026,10.3125 138.313,10.276 138.594,10.2031 C138.875,10.1302 139.151,10.0156 139.422,9.85938 L139.422,10.7656 C139.151,10.901 138.867,11 138.57,11.0625 C138.273,11.125 137.958,11.1563 137.625,11.1563 C136.719,11.1563 136,10.8724 135.469,10.3047 C134.938,9.73698 134.672,8.96875 134.672,8 C134.672,7.02083 134.94,6.25 135.477,5.6875 C136.013,5.125 136.75,4.84375 137.688,4.84375 C138,4.84375 138.299,4.875 138.586,4.9375 C138.872,5 139.151,5.09375 139.422,5.21875 M143.484,5.67188 C142.953,5.67188 142.534,5.88021 142.227,6.29688 C141.919,6.71354 141.766,7.28125 141.766,8 C141.766,8.71875 141.917,9.28385 142.219,9.69531 C142.521,10.1068 142.943,10.3125 143.484,10.3125 C144.005,10.3125 144.419,10.1068 144.727,9.69531 C145.034,9.28385 145.188,8.71875 145.188,8 C145.188,7.28125 145.034,6.71354 144.727,6.29688 C144.419,5.88021 144.005,5.67188 143.484,5.67188 M143.484,4.84375 C144.339,4.84375 145.01,5.1224 145.5,5.67969 C145.99,6.23698 146.234,7.01042 146.234,8 C146.234,8.97917 145.99,9.75 145.5,10.3125 C145.01,10.875 144.339,11.1563 143.484,11.1563 C142.62,11.1563 141.943,10.875 141.453,10.3125 C140.964,9.75 140.719,8.97917 140.719,8 C140.719,7.01042 140.964,6.23698 141.453,5.67969 C141.943,5.1224 142.62,4.84375 143.484,4.84375 M152.547,6.14063 C152.797,5.69271 153.094,5.36458 153.438,5.15625 C153.781,4.94792 154.188,4.84375 154.656,4.84375 C155.281,4.84375 155.763,5.0625 156.102,5.5 C156.44,5.9375 156.609,6.5625 156.609,7.375 L156.609,11 L155.609,11 L155.609,7.40625 C155.609,6.82292 155.508,6.39323 155.305,6.11719 C155.102,5.84115 154.792,5.70313 154.375,5.70313 C153.865,5.70313 153.461,5.8724 153.164,6.21094 C152.867,6.54948 152.719,7.01042 152.719,7.59375 L152.719,11 L151.719,11 L151.719,7.40625 C151.719,6.82292 151.617,6.39323 151.414,6.11719 C151.211,5.84115 150.896,5.70313 150.469,5.70313 C149.969,5.70313 149.57,5.8724 149.273,6.21094 C148.977,6.54948 148.828,7.01042 148.828,7.59375 L148.828,11 L147.828,11 L147.828,4.98438 L148.828,4.98438 L148.828,5.92188 C149.047,5.54688 149.315,5.27344 149.633,5.10156 C149.951,4.92969 150.323,4.84375 150.75,4.84375 C151.188,4.84375 151.56,4.95313 151.867,5.17188 C152.174,5.39063 152.401,5.71354 152.547,6.14063 M159.531,10.0938 L159.531,13.2813 L158.531,13.2813 L158.531,4.98438 L159.531,4.98438 L159.531,5.89063 C159.729,5.53646 159.987,5.27344 160.305,5.10156 C160.622,4.92969 161.005,4.84375 161.453,4.84375 C162.182,4.84375 162.773,5.13281 163.227,5.71094 C163.68,6.28906 163.906,7.05208 163.906,8 C163.906,8.94792 163.68,9.71094 163.227,10.2891 C162.773,10.8672 162.182,11.1563 161.453,11.1563 C161.005,11.1563 160.622,11.0703 160.305,10.8984 C159.987,10.7266 159.729,10.4583 159.531,10.0938 M162.891,8 C162.891,7.27083 162.74,6.70052 162.438,6.28906 C162.135,5.8776 161.724,5.67188 161.203,5.67188 C160.682,5.67188 160.273,5.8776 159.977,6.28906 C159.68,6.70052 159.531,7.27083 159.531,8 C159.531,8.72917 159.68,9.29948 159.977,9.71094 C160.273,10.1224 160.682,10.3281 161.203,10.3281 C161.724,10.3281 162.135,10.1224 162.438,9.71094 C162.74,9.29948 162.891,8.72917 162.891,8 M169.016,5.90625 C168.911,5.84375 168.794,5.79688 168.664,5.76563 C168.534,5.73438 168.391,5.71875 168.234,5.71875 C167.672,5.71875 167.242,5.90104 166.945,6.26563 C166.648,6.63021 166.5,7.15104 166.5,7.82813 L166.5,11 L165.5,11 L165.5,4.98438 L166.5,4.98438 L166.5,5.92188 C166.698,5.55729 166.964,5.28646 167.297,5.10938 C167.63,4.93229 168.036,4.84375 168.516,4.84375 C168.589,4.84375 168.664,4.84635 168.742,4.85156 C168.82,4.85677 168.911,4.86979 169.016,4.89063 L169.016,5.90625 M175.203,7.75 L175.203,8.23438 L170.656,8.23438 C170.698,8.91146 170.901,9.42708 171.266,9.78125 C171.63,10.1354 172.141,10.3125 172.797,10.3125 C173.182,10.3125 173.552,10.2656 173.906,10.1719 C174.26,10.0781 174.615,9.94271 174.969,9.76563 L174.969,10.6875 C174.615,10.8438 174.25,10.9609 173.875,11.0391 C173.5,11.1172 173.125,11.1563 172.75,11.1563 C171.781,11.1563 171.018,10.8776 170.461,10.3203 C169.904,9.76302 169.625,9.00521 169.625,8.04688 C169.625,7.06771 169.891,6.28906 170.422,5.71094 C170.953,5.13281 171.672,4.84375 172.578,4.84375 C173.38,4.84375 174.018,5.10417 174.492,5.625 C174.966,6.14583 175.203,6.85417 175.203,7.75 M174.203,7.45313 C174.203,6.91146 174.055,6.47917 173.758,6.15625 C173.461,5.83333 173.068,5.67188 172.578,5.67188 C172.026,5.67188 171.586,5.82813 171.258,6.14063 C170.93,6.45313 170.74,6.89063 170.688,7.45313 L174.203,7.45313 M180.656,5.15625 L180.656,6.09375 C180.375,5.94792 180.083,5.84115 179.781,5.77344 C179.479,5.70573 179.167,5.67188 178.844,5.67188 C178.354,5.67188 177.987,5.7474 177.742,5.89844 C177.497,6.04948 177.375,6.27083 177.375,6.5625 C177.375,6.79167 177.464,6.97135 177.641,7.10156 C177.818,7.23177 178.172,7.35938 178.703,7.48438 L179.031,7.5625 C179.74,7.70833 180.24,7.91927 180.531,8.19531 C180.823,8.47135 180.969,8.85417 180.969,9.34375 C180.969,9.89583 180.75,10.3359 180.313,10.6641 C179.875,10.9922 179.266,11.1563 178.484,11.1563 C178.161,11.1563 177.826,11.125 177.477,11.0625 C177.128,11 176.76,10.9063 176.375,10.7813 L176.375,9.76563 C176.74,9.95313 177.099,10.0938 177.453,10.1875 C177.807,10.2813 178.161,10.3281 178.516,10.3281 C178.974,10.3281 179.328,10.2474 179.578,10.0859 C179.828,9.92448 179.953,9.70313 179.953,9.42188 C179.953,9.15104 179.865,8.94271 179.688,8.79688 C179.51,8.65104 179.115,8.51563 178.5,8.39063 L178.156,8.29688 C177.542,8.17188 177.099,7.97656 176.828,7.71094 C176.557,7.44531 176.422,7.07813 176.422,6.60938 C176.422,6.04688 176.622,5.61198 177.023,5.30469 C177.424,4.9974 177.995,4.84375 178.734,4.84375 C179.099,4.84375 179.443,4.86979 179.766,4.92188 C180.089,4.97396 180.385,5.05208 180.656,5.15625 M186.375,5.15625 L186.375,6.09375 C186.094,5.94792 185.802,5.84115 185.5,5.77344 C185.198,5.70573 184.885,5.67188 184.563,5.67188 C184.073,5.67188 183.706,5.7474 183.461,5.89844 C183.216,6.04948 183.094,6.27083 183.094,6.5625 C183.094,6.79167 183.182,6.97135 183.359,7.10156 C183.536,7.23177 183.891,7.35938 184.422,7.48438 L184.75,7.5625 C185.458,7.70833 185.958,7.91927 186.25,8.19531 C186.542,8.47135 186.688,8.85417 186.688,9.34375 C186.688,9.89583 186.469,10.3359 186.031,10.6641 C185.594,10.9922 184.984,11.1563 184.203,11.1563 C183.88,11.1563 183.544,11.125 183.195,11.0625 C182.846,11 182.479,10.9063 182.094,10.7813 L182.094,9.76563 C182.458,9.95313 182.818,10.0938 183.172,10.1875 C183.526,10.2813 183.88,10.3281 184.234,10.3281 C184.693,10.3281 185.047,10.2474 185.297,10.0859 C185.547,9.92448 185.672,9.70313 185.672,9.42188 C185.672,9.15104 185.583,8.94271 185.406,8.79688 C185.229,8.65104 184.833,8.51563 184.219,8.39063 L183.875,8.29688 C183.26,8.17188 182.818,7.97656 182.547,7.71094 C182.276,7.44531 182.141,7.07813 182.141,6.60938 C182.141,6.04688 182.341,5.61198 182.742,5.30469 C183.143,4.9974 183.714,4.84375 184.453,4.84375 C184.818,4.84375 185.161,4.86979 185.484,4.92188 C185.807,4.97396 186.104,5.05208 186.375,5.15625 M193.406,7.75 L193.406,8.23438 L188.859,8.23438 C188.901,8.91146 189.104,9.42708 189.469,9.78125 C189.833,10.1354 190.344,10.3125 191,10.3125 C191.385,10.3125 191.755,10.2656 192.109,10.1719 C192.464,10.0781 192.818,9.94271 193.172,9.76563 L193.172,10.6875 C192.818,10.8438 192.453,10.9609 192.078,11.0391 C191.703,11.1172 191.328,11.1563 190.953,11.1563 C189.984,11.1563 189.221,10.8776 188.664,10.3203 C188.107,9.76302 187.828,9.00521 187.828,8.04688 C187.828,7.06771 188.094,6.28906 188.625,5.71094 C189.156,5.13281 189.875,4.84375 190.781,4.84375 C191.583,4.84375 192.221,5.10417 192.695,5.625 C193.169,6.14583 193.406,6.85417 193.406,7.75 M192.406,7.45313 C192.406,6.91146 192.258,6.47917 191.961,6.15625 C191.664,5.83333 191.271,5.67188 190.781,5.67188 C190.229,5.67188 189.789,5.82813 189.461,6.14063 C189.133,6.45313 188.943,6.89063 188.891,7.45313 L192.406,7.45313 M198.984,5.89063 L198.984,2.64063 L199.969,2.64063 L199.969,11 L198.984,11 L198.984,10.0938 C198.776,10.4583 198.513,10.7266 198.195,10.8984 C197.878,11.0703 197.495,11.1563 197.047,11.1563 C196.328,11.1563 195.74,10.8672 195.281,10.2891 C194.823,9.71094 194.594,8.94792 194.594,8 C194.594,7.05208 194.823,6.28906 195.281,5.71094 C195.74,5.13281 196.328,4.84375 197.047,4.84375 C197.495,4.84375 197.878,4.92969 198.195,5.10156 C198.513,5.27344 198.776,5.53646 198.984,5.89063 M195.609,8 C195.609,8.72917 195.76,9.29948 196.063,9.71094 C196.365,10.1224 196.776,10.3281 197.297,10.3281 C197.818,10.3281 198.229,10.1224 198.531,9.71094 C198.833,9.29948 198.984,8.72917 198.984,8 C198.984,7.27083 198.833,6.70052 198.531,6.28906 C198.229,5.8776 197.818,5.67188 197.297,5.67188 C196.776,5.67188 196.365,5.8776 196.063,6.28906 C195.76,6.70052 195.609,7.27083 195.609,8 M206.563,12.8281 L206.563,13.5938 L200.844,13.5938 L200.844,12.8281 L206.563,12.8281 M207.484,4.98438 L208.484,4.98438 L208.484,11 L207.484,11 L207.484,4.98438 M207.484,2.64063 L208.484,2.64063 L208.484,3.89063 L207.484,3.89063 L207.484,2.64063 M215.219,6.14063 C215.469,5.69271 215.766,5.36458 216.109,5.15625 C216.453,4.94792 216.859,4.84375 217.328,4.84375 C217.953,4.84375 218.435,5.0625 218.773,5.5 C219.112,5.9375 219.281,6.5625 219.281,7.375 L219.281,11 L218.281,11 L218.281,7.40625 C218.281,6.82292 218.18,6.39323 217.977,6.11719 C217.773,5.84115 217.464,5.70313 217.047,5.70313 C216.536,5.70313 216.133,5.8724 215.836,6.21094 C215.539,6.54948 215.391,7.01042 215.391,7.59375 L215.391,11 L214.391,11 L214.391,7.40625 C214.391,6.82292 214.289,6.39323 214.086,6.11719 C213.883,5.84115 213.568,5.70313 213.141,5.70313 C212.641,5.70313 212.242,5.8724 211.945,6.21094 C211.648,6.54948 211.5,7.01042 211.5,7.59375 L211.5,11 L210.5,11 L210.5,4.98438 L211.5,4.98438 L211.5,5.92188 C211.719,5.54688 211.987,5.27344 212.305,5.10156 C212.622,4.92969 212.995,4.84375 213.422,4.84375 C213.859,4.84375 214.232,4.95313 214.539,5.17188 C214.846,5.39063 215.073,5.71354 215.219,6.14063 M225.203,7.92188 C225.203,7.20313 225.055,6.64844 224.758,6.25781 C224.461,5.86719 224.047,5.67188 223.516,5.67188 C222.984,5.67188 222.57,5.86719 222.273,6.25781 C221.977,6.64844 221.828,7.20313 221.828,7.92188 C221.828,8.63021 221.977,9.18229 222.273,9.57813 C222.57,9.97396 222.984,10.1719 223.516,10.1719 C224.047,10.1719 224.461,9.97396 224.758,9.57813 C225.055,9.18229 225.203,8.63021 225.203,7.92188 M226.188,10.25 C226.188,11.2813 225.961,12.0443 225.508,12.5391 C225.055,13.0339 224.359,13.2813 223.422,13.2813 C223.068,13.2813 222.737,13.2552 222.43,13.2031 C222.122,13.151 221.823,13.0729 221.531,12.9688 L221.531,12.0156 C221.823,12.1719 222.109,12.2865 222.391,12.3594 C222.672,12.4323 222.964,12.4688 223.266,12.4688 C223.911,12.4688 224.396,12.2995 224.719,11.9609 C225.042,11.6224 225.203,11.1146 225.203,10.4375 L225.203,9.9375 C224.995,10.2917 224.732,10.5573 224.414,10.7344 C224.096,10.9115 223.714,11 223.266,11 C222.526,11 221.932,10.7188 221.484,10.1563 C221.036,9.59375 220.813,8.84896 220.813,7.92188 C220.813,6.99479 221.036,6.25 221.484,5.6875 C221.932,5.125 222.526,4.84375 223.266,4.84375 C223.714,4.84375 224.096,4.92969 224.414,5.10156 C224.732,5.27344 224.995,5.53646 225.203,5.89063 L225.203,4.98438 L226.188,4.98438 L226.188,10.25 M232.781,12.8281 L232.781,13.5938 L227.063,13.5938 L227.063,12.8281 L232.781,12.8281 M238.391,6.14063 C238.641,5.69271 238.938,5.36458 239.281,5.15625 C239.625,4.94792 240.031,4.84375 240.5,4.84375 C241.125,4.84375 241.607,5.0625 241.945,5.5 C242.284,5.9375 242.453,6.5625 242.453,7.375 L242.453,11 L241.453,11 L241.453,7.40625 C241.453,6.82292 241.352,6.39323 241.148,6.11719 C240.945,5.84115 240.635,5.70313 240.219,5.70313 C239.708,5.70313 239.305,5.8724 239.008,6.21094 C238.711,6.54948 238.563,7.01042 238.563,7.59375 L238.563,11 L237.563,11 L237.563,7.40625 C237.563,6.82292 237.461,6.39323 237.258,6.11719 C237.055,5.84115 236.74,5.70313 236.313,5.70313 C235.813,5.70313 235.414,5.8724 235.117,6.21094 C234.82,6.54948 234.672,7.01042 234.672,7.59375 L234.672,11 L233.672,11 L233.672,4.98438 L234.672,4.98438 L234.672,5.92188 C234.891,5.54688 235.159,5.27344 235.477,5.10156 C235.794,4.92969 236.167,4.84375 236.594,4.84375 C237.031,4.84375 237.404,4.95313 237.711,5.17188 C238.018,5.39063 238.245,5.71354 238.391,6.14063 M248.25,5.15625 L248.25,6.09375 C247.969,5.94792 247.677,5.84115 247.375,5.77344 C247.073,5.70573 246.76,5.67188 246.438,5.67188 C245.948,5.67188 245.581,5.7474 245.336,5.89844 C245.091,6.04948 244.969,6.27083 244.969,6.5625 C244.969,6.79167 245.057,6.97135 245.234,7.10156 C245.411,7.23177 245.766,7.35938 246.297,7.48438 L246.625,7.5625 C247.333,7.70833 247.833,7.91927 248.125,8.19531 C248.417,8.47135 248.563,8.85417 248.563,9.34375 C248.563,9.89583 248.344,10.3359 247.906,10.6641 C247.469,10.9922 246.859,11.1563 246.078,11.1563 C245.755,11.1563 245.419,11.125 245.07,11.0625 C244.721,11 244.354,10.9063 243.969,10.7813 L243.969,9.76563 C244.333,9.95313 244.693,10.0938 245.047,10.1875 C245.401,10.2813 245.755,10.3281 246.109,10.3281 C246.568,10.3281 246.922,10.2474 247.172,10.0859 C247.422,9.92448 247.547,9.70313 247.547,9.42188 C247.547,9.15104 247.458,8.94271 247.281,8.79688 C247.104,8.65104 246.708,8.51563 246.094,8.39063 L245.75,8.29688 C245.135,8.17188 244.693,7.97656 244.422,7.71094 C244.151,7.44531 244.016,7.07813 244.016,6.60938 C244.016,6.04688 244.216,5.61198 244.617,5.30469 C245.018,4.9974 245.589,4.84375 246.328,4.84375 C246.693,4.84375 247.036,4.86979 247.359,4.92188 C247.682,4.97396 247.979,5.05208 248.25,5.15625 M254.094,7.92188 C254.094,7.20313 253.945,6.64844 253.648,6.25781 C253.352,5.86719 252.938,5.67188 252.406,5.67188 C251.875,5.67188 251.461,5.86719 251.164,6.25781 C250.867,6.64844 250.719,7.20313 250.719,7.92188 C250.719,8.63021 250.867,9.18229 251.164,9.57813 C251.461,9.97396 251.875,10.1719 252.406,10.1719 C252.938,10.1719 253.352,9.97396 253.648,9.57813 C253.945,9.18229 254.094,8.63021 254.094,7.92188 M255.078,10.25 C255.078,11.2813 254.852,12.0443 254.398,12.5391 C253.945,13.0339 253.25,13.2813 252.313,13.2813 C251.958,13.2813 251.628,13.2552 251.32,13.2031 C251.013,13.151 250.714,13.0729 250.422,12.9688 L250.422,12.0156 C250.714,12.1719 251,12.2865 251.281,12.3594 C251.563,12.4323 251.854,12.4688 252.156,12.4688 C252.802,12.4688 253.286,12.2995 253.609,11.9609 C253.932,11.6224 254.094,11.1146 254.094,10.4375 L254.094,9.9375 C253.885,10.2917 253.622,10.5573 253.305,10.7344 C252.987,10.9115 252.604,11 252.156,11 C251.417,11 250.823,10.7188 250.375,10.1563 C249.927,9.59375 249.703,8.84896 249.703,7.92188 C249.703,6.99479 249.927,6.25 250.375,5.6875 C250.823,5.125 251.417,4.84375 252.156,4.84375 C252.604,4.84375 252.987,4.92969 253.305,5.10156 C253.622,5.27344 253.885,5.53646 254.094,5.89063 L254.094,4.98438 L255.078,4.98438 L255.078,10.25 M260.938,5.15625 L260.938,6.09375 C260.656,5.94792 260.365,5.84115 260.063,5.77344 C259.76,5.70573 259.448,5.67188 259.125,5.67188 C258.635,5.67188 258.268,5.7474 258.023,5.89844 C257.779,6.04948 257.656,6.27083 257.656,6.5625 C257.656,6.79167 257.745,6.97135 257.922,7.10156 C258.099,7.23177 258.453,7.35938 258.984,7.48438 L259.313,7.5625 C260.021,7.70833 260.521,7.91927 260.813,8.19531 C261.104,8.47135 261.25,8.85417 261.25,9.34375 C261.25,9.89583 261.031,10.3359 260.594,10.6641 C260.156,10.9922 259.547,11.1563 258.766,11.1563 C258.443,11.1563 258.107,11.125 257.758,11.0625 C257.409,11 257.042,10.9063 256.656,10.7813 L256.656,9.76563 C257.021,9.95313 257.38,10.0938 257.734,10.1875 C258.089,10.2813 258.443,10.3281 258.797,10.3281 C259.255,10.3281 259.609,10.2474 259.859,10.0859 C260.109,9.92448 260.234,9.70313 260.234,9.42188 C260.234,9.15104 260.146,8.94271 259.969,8.79688 C259.792,8.65104 259.396,8.51563 258.781,8.39063 L258.438,8.29688 C257.823,8.17188 257.38,7.97656 257.109,7.71094 C256.839,7.44531 256.703,7.07813 256.703,6.60938 C256.703,6.04688 256.904,5.61198 257.305,5.30469 C257.706,4.9974 258.276,4.84375 259.016,4.84375 C259.38,4.84375 259.724,4.86979 260.047,4.92188 C260.37,4.97396 260.667,5.05208 260.938,5.15625 "/>
</g>

<g fill="none" stroke="#000000" stroke-opacity="1" stroke-width="1" stroke-linecap="square" stroke-linejoin="bevel" transform="matrix(1.99323,0,0,1.99323,286.229,6.9763)"
font-family="sans" font-size="11" font-weight="100" font-style="normal" 
>
</g>

<g fill="none" stroke="#000000" stroke-opacity="1" stroke-width="1" stroke-linecap="square" stroke-linejoin="bevel" transform="matrix(1.99323,0,0,1.99323,286.229,6.9763)"
font-family="Ubuntu" font-size="11" font-weight="400" font-style="normal" 
>
</g>

<g fill="none" stroke="#000000" stroke-opacity="1" stroke-width="1" stroke-linecap="square" stroke-linejoin="bevel" transform="matrix(1.99323,0,0,1.99323,0.00239187,95.4976)"
font-family="Ubuntu" font-size="11" font-weight="400" font-style="normal" 
>
</g>

<g fill="#000000" fill-opacity="1" stroke="#000000" stroke-opacity="1" stroke-width="1" stroke-linecap="square" stroke-linejoin="round" transform="matrix(1.99323,0,0,1.99323,0.00239187,95.4976)"
font-family="Ubuntu" font-size="11" font-weight="400" font-style="normal" 
>
<path vector-effect="none" fill-rule="evenodd" d="M402.34,-29.911 L402.34,-26.3655 L412.47,-29.911 L402.34,-33.4565 L402.34,-29.911"/>
</g>

<g fill="none" stroke="#000000" stroke-opacity="1" stroke-width="1" stroke-linecap="square" stroke-linejoin="bevel" transform="matrix(1.99323,0,0,1.99323,0.00239187,95.4976)"
font-family="Ubuntu" font-size="11" font-weight="400" font-style="normal" 
>
</g>

<g fill="none" stroke="#000000" stroke-opacity="1" stroke-width="1" stroke-linecap="square" stroke-linejoin="bevel" transform="matrix(1.99323,0,0,1.99323,0.00239187,95.4976)"
font-family="Ubuntu" font-size="11" font-weight="400" font-style="normal" 
>
</g>

<g fill="none" stroke="#000000" stroke-opacity="1" stroke-width="1" stroke-linecap="square" stroke-linejoin="bevel" transform="matrix(1.99323,0,0,1.99323,0.00239187,95.4976)"
font-family="Ubuntu" font-size="11" font-weight="400" font-style="normal" 
>
</g>

<g fill="none" stroke="#000000" stroke-opacity="1" stroke-width="1" stroke-linecap="square" stroke-linejoin="bevel" transform="matrix(1.99323,0,0,1.99323,0.00239187,95.4976)"
font-family="Ubuntu" font-size="11" font-weight="400" font-style="normal" 
>
</g>

<g fill="none" stroke="#000000" stroke-opacity="1" stroke-width="1" stroke-linecap="square" stroke-linejoin="round" transform="matrix(1.99323,0,0,1.99323,0.00239187,95.4976)"
font-family="Ubuntu" font-size="11" font-weight="400" font-style="normal" 
>
<path vector-effect="none" fill-rule="evenodd" d="M426.83,-17.145 C419.55,-14.971 411.84,-13.049 404.49,-11.911 C290.29,5.7671 259.27,1.4546 144.49,-11.911 C138.37,-12.623 132.03,-13.646 125.74,-14.849 "/>
</g>

<g fill="none" stroke="#000000" stroke-opacity="1" stroke-width="1" stroke-linecap="square" stroke-linejoin="bevel" transform="matrix(1.99323,0,0,1.99323,0.00239187,95.4976)"
font-family="Ubuntu" font-size="11" font-weight="400" font-style="normal" 
>
</g>

<g fill="none" stroke="#000000" stroke-opacity="1" stroke-width="1" stroke-linecap="square" stroke-linejoin="bevel" transform="matrix(1.99323,0,0,1.99323,378.727,42.8544)"
font-family="Ubuntu" font-size="11" font-weight="400" font-style="normal" 
>
</g>

<g fill="none" stroke="#000000" stroke-opacity="1" stroke-width="1" stroke-linecap="square" stroke-linejoin="bevel" transform="matrix(1.99323,0,0,1.99323,378.727,42.8544)"
font-family="sans" font-size="11" font-weight="100" font-style="normal" 
>
</g>

<g fill="#000000" fill-opacity="1" stroke="#000000" stroke-opacity="1" stroke-width="1" stroke-linecap="square" stroke-linejoin="round" transform="matrix(1.99323,0,0,1.99323,378.727,42.8544)"
font-family="sans" font-size="11" font-weight="100" font-style="normal" 
>
<path vector-effect="none" fill-rule="nonzero" d="M2.79688,2.98438 L3.70313,2.98438 L0.90625,12.0156 L0,12.0156 L2.79688,2.98438 M9.0625,5.21875 L9.0625,6.14063 C8.79167,5.98438 8.51563,5.86719 8.23438,5.78906 C7.95313,5.71094 7.66667,5.67188 7.375,5.67188 C6.73958,5.67188 6.24479,5.875 5.89063,6.28125 C5.53646,6.6875 5.35938,7.26042 5.35938,8 C5.35938,8.72917 5.53646,9.29688 5.89063,9.70313 C6.24479,10.1094 6.73958,10.3125 7.375,10.3125 C7.66667,10.3125 7.95313,10.276 8.23438,10.2031 C8.51563,10.1302 8.79167,10.0156 9.0625,9.85938 L9.0625,10.7656 C8.79167,10.901 8.50781,11 8.21094,11.0625 C7.91406,11.125 7.59896,11.1563 7.26563,11.1563 C6.35938,11.1563 5.64063,10.8724 5.10938,10.3047 C4.57813,9.73698 4.3125,8.96875 4.3125,8 C4.3125,7.02083 4.58073,6.25 5.11719,5.6875 C5.65365,5.125 6.39063,4.84375 7.32813,4.84375 C7.64063,4.84375 7.9401,4.875 8.22656,4.9375 C8.51302,5 8.79167,5.09375 9.0625,5.21875 M13.5156,7.96875 C12.724,7.96875 12.1745,8.0625 11.8672,8.25 C11.5599,8.4375 11.4063,8.75 11.4063,9.1875 C11.4063,9.53125 11.5208,9.80729 11.75,10.0156 C11.9792,10.224 12.2917,10.3281 12.6875,10.3281 C13.2396,10.3281 13.6797,10.1328 14.0078,9.74219 C14.3359,9.35156 14.5,8.83854 14.5,8.20313 L14.5,7.96875 L13.5156,7.96875 M15.4844,7.5625 L15.4844,11 L14.5,11 L14.5,10.0938 C14.2813,10.4583 14.0026,10.7266 13.6641,10.8984 C13.3255,11.0703 12.9115,11.1563 12.4219,11.1563 C11.8073,11.1563 11.3177,10.9844 10.9531,10.6406 C10.5885,10.2969 10.4063,9.83333 10.4063,9.25 C10.4063,8.57292 10.6328,8.0625 11.0859,7.71875 C11.5391,7.375 12.2188,7.20313 13.125,7.20313 L14.5,7.20313 L14.5,7.10938 C14.5,6.65104 14.3516,6.29688 14.0547,6.04688 C13.7578,5.79688 13.3385,5.67188 12.7969,5.67188 C12.4531,5.67188 12.1172,5.71354 11.7891,5.79688 C11.4609,5.88021 11.1458,6.00521 10.8438,6.17188 L10.8438,5.26563 C11.2083,5.11979 11.5625,5.01302 11.9063,4.94531 C12.25,4.8776 12.5781,4.84375 12.8906,4.84375 C13.7656,4.84375 14.4167,5.06771 14.8438,5.51563 C15.2708,5.96354 15.4844,6.64583 15.4844,7.5625 M22.2031,6.14063 C22.4531,5.69271 22.75,5.36458 23.0938,5.15625 C23.4375,4.94792 23.8438,4.84375 24.3125,4.84375 C24.9375,4.84375 25.4193,5.0625 25.7578,5.5 C26.0964,5.9375 26.2656,6.5625 26.2656,7.375 L26.2656,11 L25.2656,11 L25.2656,7.40625 C25.2656,6.82292 25.1641,6.39323 24.9609,6.11719 C24.7578,5.84115 24.4479,5.70313 24.0313,5.70313 C23.5208,5.70313 23.1172,5.8724 22.8203,6.21094 C22.5234,6.54948 22.375,7.01042 22.375,7.59375 L22.375,11 L21.375,11 L21.375,7.40625 C21.375,6.82292 21.2734,6.39323 21.0703,6.11719 C20.8672,5.84115 20.5521,5.70313 20.125,5.70313 C19.625,5.70313 19.2266,5.8724 18.9297,6.21094 C18.6328,6.54948 18.4844,7.01042 18.4844,7.59375 L18.4844,11 L17.4844,11 L17.4844,4.98438 L18.4844,4.98438 L18.4844,5.92188 C18.7031,5.54688 18.9714,5.27344 19.2891,5.10156 C19.6068,4.92969 19.9792,4.84375 20.4063,4.84375 C20.8438,4.84375 21.2161,4.95313 21.5234,5.17188 C21.8307,5.39063 22.0573,5.71354 22.2031,6.14063 M33.375,7.75 L33.375,8.23438 L28.8281,8.23438 C28.8698,8.91146 29.0729,9.42708 29.4375,9.78125 C29.8021,10.1354 30.3125,10.3125 30.9688,10.3125 C31.3542,10.3125 31.724,10.2656 32.0781,10.1719 C32.4323,10.0781 32.7865,9.94271 33.1406,9.76563 L33.1406,10.6875 C32.7865,10.8438 32.4219,10.9609 32.0469,11.0391 C31.6719,11.1172 31.2969,11.1563 30.9219,11.1563 C29.9531,11.1563 29.1901,10.8776 28.6328,10.3203 C28.0755,9.76302 27.7969,9.00521 27.7969,8.04688 C27.7969,7.06771 28.0625,6.28906 28.5938,5.71094 C29.125,5.13281 29.8438,4.84375 30.75,4.84375 C31.5521,4.84375 32.1901,5.10417 32.6641,5.625 C33.138,6.14583 33.375,6.85417 33.375,7.75 M32.375,7.45313 C32.375,6.91146 32.2266,6.47917 31.9297,6.15625 C31.6328,5.83333 31.2396,5.67188 30.75,5.67188 C30.1979,5.67188 29.7578,5.82813 29.4297,6.14063 C29.1016,6.45313 28.9115,6.89063 28.8594,7.45313 L32.375,7.45313 M38.4688,5.90625 C38.3646,5.84375 38.2474,5.79688 38.1172,5.76563 C37.987,5.73438 37.8438,5.71875 37.6875,5.71875 C37.125,5.71875 36.6953,5.90104 36.3984,6.26563 C36.1016,6.63021 35.9531,7.15104 35.9531,7.82813 L35.9531,11 L34.9531,11 L34.9531,4.98438 L35.9531,4.98438 L35.9531,5.92188 C36.151,5.55729 36.4167,5.28646 36.75,5.10938 C37.0833,4.93229 37.4896,4.84375 37.9688,4.84375 C38.0417,4.84375 38.1172,4.84635 38.1953,4.85156 C38.2734,4.85677 38.3646,4.86979 38.4688,4.89063 L38.4688,5.90625 M42.2344,7.96875 C41.4427,7.96875 40.8932,8.0625 40.5859,8.25 C40.2786,8.4375 40.125,8.75 40.125,9.1875 C40.125,9.53125 40.2396,9.80729 40.4688,10.0156 C40.6979,10.224 41.0104,10.3281 41.4063,10.3281 C41.9583,10.3281 42.3984,10.1328 42.7266,9.74219 C43.0547,9.35156 43.2188,8.83854 43.2188,8.20313 L43.2188,7.96875 L42.2344,7.96875 M44.2031,7.5625 L44.2031,11 L43.2188,11 L43.2188,10.0938 C43,10.4583 42.7214,10.7266 42.3828,10.8984 C42.0443,11.0703 41.6302,11.1563 41.1406,11.1563 C40.526,11.1563 40.0365,10.9844 39.6719,10.6406 C39.3073,10.2969 39.125,9.83333 39.125,9.25 C39.125,8.57292 39.3516,8.0625 39.8047,7.71875 C40.2578,7.375 40.9375,7.20313 41.8438,7.20313 L43.2188,7.20313 L43.2188,7.10938 C43.2188,6.65104 43.0703,6.29688 42.7734,6.04688 C42.4766,5.79688 42.0573,5.67188 41.5156,5.67188 C41.1719,5.67188 40.8359,5.71354 40.5078,5.79688 C40.1797,5.88021 39.8646,6.00521 39.5625,6.17188 L39.5625,5.26563 C39.9271,5.11979 40.2813,5.01302 40.625,4.94531 C40.9688,4.8776 41.2969,4.84375 41.6094,4.84375 C42.4844,4.84375 43.1354,5.06771 43.5625,5.51563 C43.9896,5.96354 44.2031,6.64583 44.2031,7.5625 M48,2.98438 L48.9063,2.98438 L46.1094,12.0156 L45.2031,12.0156 L48,2.98438 M49.9375,4.98438 L50.9375,4.98438 L50.9375,11 L49.9375,11 L49.9375,4.98438 M49.9375,2.64063 L50.9375,2.64063 L50.9375,3.89063 L49.9375,3.89063 L49.9375,2.64063 M57.9844,7.375 L57.9844,11 L57,11 L57,7.40625 C57,6.83333 56.8906,6.40625 56.6719,6.125 C56.4531,5.84375 56.1198,5.70313 55.6719,5.70313 C55.1406,5.70313 54.7214,5.8724 54.4141,6.21094 C54.1068,6.54948 53.9531,7.01042 53.9531,7.59375 L53.9531,11 L52.9531,11 L52.9531,4.98438 L53.9531,4.98438 L53.9531,5.92188 C54.1823,5.55729 54.4583,5.28646 54.7813,5.10938 C55.1042,4.93229 55.474,4.84375 55.8906,4.84375 C56.5781,4.84375 57.099,5.05729 57.4531,5.48438 C57.8073,5.91146 57.9844,6.54167 57.9844,7.375 M60.9219,10.0938 L60.9219,13.2813 L59.9219,13.2813 L59.9219,4.98438 L60.9219,4.98438 L60.9219,5.89063 C61.1198,5.53646 61.3776,5.27344 61.6953,5.10156 C62.013,4.92969 62.3958,4.84375 62.8438,4.84375 C63.5729,4.84375 64.1641,5.13281 64.6172,5.71094 C65.0703,6.28906 65.2969,7.05208 65.2969,8 C65.2969,8.94792 65.0703,9.71094 64.6172,10.2891 C64.1641,10.8672 63.5729,11.1563 62.8438,11.1563 C62.3958,11.1563 62.013,11.0703 61.6953,10.8984 C61.3776,10.7266 61.1198,10.4583 60.9219,10.0938 M64.2813,8 C64.2813,7.27083 64.1302,6.70052 63.8281,6.28906 C63.526,5.8776 63.1146,5.67188 62.5938,5.67188 C62.0729,5.67188 61.6641,5.8776 61.3672,6.28906 C61.0703,6.70052 60.9219,7.27083 60.9219,8 C60.9219,8.72917 61.0703,9.29948 61.3672,9.71094 C61.6641,10.1224 62.0729,10.3281 62.5938,10.3281 C63.1146,10.3281 63.526,10.1224 63.8281,9.71094 C64.1302,9.29948 64.2813,8.72917 64.2813,8 M66.8281,8.625 L66.8281,4.98438 L67.8125,4.98438 L67.8125,8.59375 C67.8125,9.15625 67.9245,9.58073 68.1484,9.86719 C68.3724,10.1536 68.7031,10.2969 69.1406,10.2969 C69.6823,10.2969 70.1068,10.1276 70.4141,9.78906 C70.7214,9.45052 70.875,8.98438 70.875,8.39063 L70.875,4.98438 L71.8594,4.98438 L71.8594,11 L70.875,11 L70.875,10.0781 C70.6354,10.4427 70.3568,10.7135 70.0391,10.8906 C69.7214,11.0677 69.3542,11.1563 68.9375,11.1563 C68.25,11.1563 67.7266,10.9401 67.3672,10.5078 C67.0078,10.0755 66.8281,9.44792 66.8281,8.625 M74.875,3.28125 L74.875,4.98438 L76.9063,4.98438 L76.9063,5.75 L74.875,5.75 L74.875,9.01563 C74.875,9.50521 74.9427,9.82031 75.0781,9.96094 C75.2135,10.1016 75.4844,10.1719 75.8906,10.1719 L76.9063,10.1719 L76.9063,11 L75.8906,11 C75.1302,11 74.6042,10.8568 74.3125,10.5703 C74.0208,10.2839 73.875,9.76563 73.875,9.01563 L73.875,5.75 L73.1563,5.75 L73.1563,4.98438 L73.875,4.98438 L73.875,3.28125 L74.875,3.28125 M79.9688,2.98438 L80.875,2.98438 L78.0781,12.0156 L77.1719,12.0156 L79.9688,2.98438 M85.75,5.15625 L85.75,6.09375 C85.4688,5.94792 85.1771,5.84115 84.875,5.77344 C84.5729,5.70573 84.2604,5.67188 83.9375,5.67188 C83.4479,5.67188 83.0807,5.7474 82.8359,5.89844 C82.5911,6.04948 82.4688,6.27083 82.4688,6.5625 C82.4688,6.79167 82.5573,6.97135 82.7344,7.10156 C82.9115,7.23177 83.2656,7.35938 83.7969,7.48438 L84.125,7.5625 C84.8333,7.70833 85.3333,7.91927 85.625,8.19531 C85.9167,8.47135 86.0625,8.85417 86.0625,9.34375 C86.0625,9.89583 85.8438,10.3359 85.4063,10.6641 C84.9688,10.9922 84.3594,11.1563 83.5781,11.1563 C83.2552,11.1563 82.9193,11.125 82.5703,11.0625 C82.2214,11 81.8542,10.9063 81.4688,10.7813 L81.4688,9.76563 C81.8333,9.95313 82.1927,10.0938 82.5469,10.1875 C82.901,10.2813 83.2552,10.3281 83.6094,10.3281 C84.0677,10.3281 84.4219,10.2474 84.6719,10.0859 C84.9219,9.92448 85.0469,9.70313 85.0469,9.42188 C85.0469,9.15104 84.9583,8.94271 84.7813,8.79688 C84.6042,8.65104 84.2083,8.51563 83.5938,8.39063 L83.25,8.29688 C82.6354,8.17188 82.1927,7.97656 81.9219,7.71094 C81.651,7.44531 81.5156,7.07813 81.5156,6.60938 C81.5156,6.04688 81.7161,5.61198 82.1172,5.30469 C82.5182,4.9974 83.0885,4.84375 83.8281,4.84375 C84.1927,4.84375 84.5365,4.86979 84.8594,4.92188 C85.1823,4.97396 85.4792,5.05208 85.75,5.15625 M88.5938,10.0938 L88.5938,13.2813 L87.5938,13.2813 L87.5938,4.98438 L88.5938,4.98438 L88.5938,5.89063 C88.7917,5.53646 89.0495,5.27344 89.3672,5.10156 C89.6849,4.92969 90.0677,4.84375 90.5156,4.84375 C91.2448,4.84375 91.8359,5.13281 92.2891,5.71094 C92.7422,6.28906 92.9688,7.05208 92.9688,8 C92.9688,8.94792 92.7422,9.71094 92.2891,10.2891 C91.8359,10.8672 91.2448,11.1563 90.5156,11.1563 C90.0677,11.1563 89.6849,11.0703 89.3672,10.8984 C89.0495,10.7266 88.7917,10.4583 88.5938,10.0938 M91.9531,8 C91.9531,7.27083 91.8021,6.70052 91.5,6.28906 C91.1979,5.8776 90.7865,5.67188 90.2656,5.67188 C89.7448,5.67188 89.3359,5.8776 89.0391,6.28906 C88.7422,6.70052 88.5938,7.27083 88.5938,8 C88.5938,8.72917 88.7422,9.29948 89.0391,9.71094 C89.3359,10.1224 89.7448,10.3281 90.2656,10.3281 C90.7865,10.3281 91.1979,10.1224 91.5,9.71094 C91.8021,9.29948 91.9531,8.72917 91.9531,8 M99.75,7.75 L99.75,8.23438 L95.2031,8.23438 C95.2448,8.91146 95.4479,9.42708 95.8125,9.78125 C96.1771,10.1354 96.6875,10.3125 97.3438,10.3125 C97.7292,10.3125 98.099,10.2656 98.4531,10.1719 C98.8073,10.0781 99.1615,9.94271 99.5156,9.76563 L99.5156,10.6875 C99.1615,10.8438 98.7969,10.9609 98.4219,11.0391 C98.0469,11.1172 97.6719,11.1563 97.2969,11.1563 C96.3281,11.1563 95.5651,10.8776 95.0078,10.3203 C94.4505,9.76302 94.1719,9.00521 94.1719,8.04688 C94.1719,7.06771 94.4375,6.28906 94.9688,5.71094 C95.5,5.13281 96.2188,4.84375 97.125,4.84375 C97.9271,4.84375 98.5651,5.10417 99.0391,5.625 C99.513,6.14583 99.75,6.85417 99.75,7.75 M98.75,7.45313 C98.75,6.91146 98.6016,6.47917 98.3047,6.15625 C98.0078,5.83333 97.6146,5.67188 97.125,5.67188 C96.5729,5.67188 96.1328,5.82813 95.8047,6.14063 C95.4766,6.45313 95.2865,6.89063 95.2344,7.45313 L98.75,7.45313 M105.688,5.21875 L105.688,6.14063 C105.417,5.98438 105.141,5.86719 104.859,5.78906 C104.578,5.71094 104.292,5.67188 104,5.67188 C103.365,5.67188 102.87,5.875 102.516,6.28125 C102.161,6.6875 101.984,7.26042 101.984,8 C101.984,8.72917 102.161,9.29688 102.516,9.70313 C102.87,10.1094 103.365,10.3125 104,10.3125 C104.292,10.3125 104.578,10.276 104.859,10.2031 C105.141,10.1302 105.417,10.0156 105.688,9.85938 L105.688,10.7656 C105.417,10.901 105.133,11 104.836,11.0625 C104.539,11.125 104.224,11.1563 103.891,11.1563 C102.984,11.1563 102.266,10.8724 101.734,10.3047 C101.203,9.73698 100.938,8.96875 100.938,8 C100.938,7.02083 101.206,6.25 101.742,5.6875 C102.279,5.125 103.016,4.84375 103.953,4.84375 C104.266,4.84375 104.565,4.875 104.852,4.9375 C105.138,5 105.417,5.09375 105.688,5.21875 M107.406,4.98438 L108.406,4.98438 L108.406,11 L107.406,11 L107.406,4.98438 M107.406,2.64063 L108.406,2.64063 L108.406,3.89063 L107.406,3.89063 L107.406,2.64063 M113.5,2.64063 L113.5,3.46875 L112.563,3.46875 C112.208,3.46875 111.961,3.53906 111.82,3.67969 C111.68,3.82031 111.609,4.07813 111.609,4.45313 L111.609,4.98438 L113.234,4.98438 L113.234,5.75 L111.609,5.75 L111.609,11 L110.625,11 L110.625,5.75 L109.672,5.75 L109.672,4.98438 L110.625,4.98438 L110.625,4.5625 C110.625,3.89583 110.779,3.40885 111.086,3.10156 C111.393,2.79427 111.885,2.64063 112.563,2.64063 L113.5,2.64063 M114.313,4.98438 L115.313,4.98438 L115.313,11 L114.313,11 L114.313,4.98438 M114.313,2.64063 L115.313,2.64063 L115.313,3.89063 L114.313,3.89063 L114.313,2.64063 M121.688,5.21875 L121.688,6.14063 C121.417,5.98438 121.141,5.86719 120.859,5.78906 C120.578,5.71094 120.292,5.67188 120,5.67188 C119.365,5.67188 118.87,5.875 118.516,6.28125 C118.161,6.6875 117.984,7.26042 117.984,8 C117.984,8.72917 118.161,9.29688 118.516,9.70313 C118.87,10.1094 119.365,10.3125 120,10.3125 C120.292,10.3125 120.578,10.276 120.859,10.2031 C121.141,10.1302 121.417,10.0156 121.688,9.85938 L121.688,10.7656 C121.417,10.901 121.133,11 120.836,11.0625 C120.539,11.125 120.224,11.1563 119.891,11.1563 C118.984,11.1563 118.266,10.8724 117.734,10.3047 C117.203,9.73698 116.938,8.96875 116.938,8 C116.938,7.02083 117.206,6.25 117.742,5.6875 C118.279,5.125 119.016,4.84375 119.953,4.84375 C120.266,4.84375 120.565,4.875 120.852,4.9375 C121.138,5 121.417,5.09375 121.688,5.21875 M125.172,2.98438 L126.078,2.98438 L123.281,12.0156 L122.375,12.0156 L125.172,2.98438 M132.109,7.375 L132.109,11 L131.125,11 L131.125,7.40625 C131.125,6.83333 131.016,6.40625 130.797,6.125 C130.578,5.84375 130.245,5.70313 129.797,5.70313 C129.266,5.70313 128.846,5.8724 128.539,6.21094 C128.232,6.54948 128.078,7.01042 128.078,7.59375 L128.078,11 L127.078,11 L127.078,4.98438 L128.078,4.98438 L128.078,5.92188 C128.307,5.55729 128.583,5.28646 128.906,5.10938 C129.229,4.93229 129.599,4.84375 130.016,4.84375 C130.703,4.84375 131.224,5.05729 131.578,5.48438 C131.932,5.91146 132.109,6.54167 132.109,7.375 M133.984,8.625 L133.984,4.98438 L134.969,4.98438 L134.969,8.59375 C134.969,9.15625 135.081,9.58073 135.305,9.86719 C135.529,10.1536 135.859,10.2969 136.297,10.2969 C136.839,10.2969 137.263,10.1276 137.57,9.78906 C137.878,9.45052 138.031,8.98438 138.031,8.39063 L138.031,4.98438 L139.016,4.98438 L139.016,11 L138.031,11 L138.031,10.0781 C137.792,10.4427 137.513,10.7135 137.195,10.8906 C136.878,11.0677 136.51,11.1563 136.094,11.1563 C135.406,11.1563 134.883,10.9401 134.523,10.5078 C134.164,10.0755 133.984,9.44792 133.984,8.625 M145.734,6.14063 C145.984,5.69271 146.281,5.36458 146.625,5.15625 C146.969,4.94792 147.375,4.84375 147.844,4.84375 C148.469,4.84375 148.951,5.0625 149.289,5.5 C149.628,5.9375 149.797,6.5625 149.797,7.375 L149.797,11 L148.797,11 L148.797,7.40625 C148.797,6.82292 148.695,6.39323 148.492,6.11719 C148.289,5.84115 147.979,5.70313 147.563,5.70313 C147.052,5.70313 146.648,5.8724 146.352,6.21094 C146.055,6.54948 145.906,7.01042 145.906,7.59375 L145.906,11 L144.906,11 L144.906,7.40625 C144.906,6.82292 144.805,6.39323 144.602,6.11719 C144.398,5.84115 144.083,5.70313 143.656,5.70313 C143.156,5.70313 142.758,5.8724 142.461,6.21094 C142.164,6.54948 142.016,7.01042 142.016,7.59375 L142.016,11 L141.016,11 L141.016,4.98438 L142.016,4.98438 L142.016,5.92188 C142.234,5.54688 142.503,5.27344 142.82,5.10156 C143.138,4.92969 143.51,4.84375 143.938,4.84375 C144.375,4.84375 144.747,4.95313 145.055,5.17188 C145.362,5.39063 145.589,5.71354 145.734,6.14063 M156.078,8 C156.078,7.27083 155.927,6.70052 155.625,6.28906 C155.323,5.8776 154.911,5.67188 154.391,5.67188 C153.87,5.67188 153.461,5.8776 153.164,6.28906 C152.867,6.70052 152.719,7.27083 152.719,8 C152.719,8.72917 152.867,9.29948 153.164,9.71094 C153.461,10.1224 153.87,10.3281 154.391,10.3281 C154.911,10.3281 155.323,10.1224 155.625,9.71094 C155.927,9.29948 156.078,8.72917 156.078,8 M152.719,5.89063 C152.917,5.53646 153.174,5.27344 153.492,5.10156 C153.81,4.92969 154.193,4.84375 154.641,4.84375 C155.37,4.84375 155.961,5.13281 156.414,5.71094 C156.867,6.28906 157.094,7.05208 157.094,8 C157.094,8.94792 156.867,9.71094 156.414,10.2891 C155.961,10.8672 155.37,11.1563 154.641,11.1563 C154.193,11.1563 153.81,11.0703 153.492,10.8984 C153.174,10.7266 152.917,10.4583 152.719,10.0938 L152.719,11 L151.719,11 L151.719,2.64063 L152.719,2.64063 L152.719,5.89063 M163.875,7.75 L163.875,8.23438 L159.328,8.23438 C159.37,8.91146 159.573,9.42708 159.938,9.78125 C160.302,10.1354 160.813,10.3125 161.469,10.3125 C161.854,10.3125 162.224,10.2656 162.578,10.1719 C162.932,10.0781 163.286,9.94271 163.641,9.76563 L163.641,10.6875 C163.286,10.8438 162.922,10.9609 162.547,11.0391 C162.172,11.1172 161.797,11.1563 161.422,11.1563 C160.453,11.1563 159.69,10.8776 159.133,10.3203 C158.576,9.76302 158.297,9.00521 158.297,8.04688 C158.297,7.06771 158.563,6.28906 159.094,5.71094 C159.625,5.13281 160.344,4.84375 161.25,4.84375 C162.052,4.84375 162.69,5.10417 163.164,5.625 C163.638,6.14583 163.875,6.85417 163.875,7.75 M162.875,7.45313 C162.875,6.91146 162.727,6.47917 162.43,6.15625 C162.133,5.83333 161.74,5.67188 161.25,5.67188 C160.698,5.67188 160.258,5.82813 159.93,6.14063 C159.602,6.45313 159.411,6.89063 159.359,7.45313 L162.875,7.45313 M168.969,5.90625 C168.865,5.84375 168.747,5.79688 168.617,5.76563 C168.487,5.73438 168.344,5.71875 168.188,5.71875 C167.625,5.71875 167.195,5.90104 166.898,6.26563 C166.602,6.63021 166.453,7.15104 166.453,7.82813 L166.453,11 L165.453,11 L165.453,4.98438 L166.453,4.98438 L166.453,5.92188 C166.651,5.55729 166.917,5.28646 167.25,5.10938 C167.583,4.93229 167.99,4.84375 168.469,4.84375 C168.542,4.84375 168.617,4.84635 168.695,4.85156 C168.773,4.85677 168.865,4.86979 168.969,4.89063 L168.969,5.90625"/>
</g>

<g fill="none" stroke="#000000" stroke-opacity="1" stroke-width="1" stroke-linecap="square" stroke-linejoin="bevel" transform="matrix(1.99323,0,0,1.99323,378.727,42.8544)"
font-family="sans" font-size="11" font-weight="100" font-style="normal" 
>
</g>

<g fill="none" stroke="#000000" stroke-opacity="1" stroke-width="1" stroke-linecap="square" stroke-linejoin="bevel" transform="matrix(1.99323,0,0,1.99323,378.727,42.8544)"
font-family="Ubuntu" font-size="11" font-weight="400" font-style="normal" 
>
</g>

<g fill="none" stroke="#000000" stroke-opacity="1" stroke-width="1" stroke-linecap="square" stroke-linejoin="bevel" transform="matrix(1.99323,0,0,1.99323,0.00239187,95.4976)"
font-family="Ubuntu" font-size="11" font-weight="400" font-style="normal" 
>
</g>

<g fill="#000000" fill-opacity="1" stroke="#000000" stroke-opacity="1" stroke-width="1" stroke-linecap="square" stroke-linejoin="round" transform="matrix(1.99323,0,0,1.99323,0.00239187,95.4976)"
font-family="Ubuntu" font-size="11" font-weight="400" font-style="normal" 
>
<path vector-effect="none" fill-rule="evenodd" d="M125.74,-14.849 L126.446,-18.279 L115.94,-16.866 L125.034,-11.419 L125.74,-14.849"/>
</g>

<g fill="none" stroke="#000000" stroke-opacity="1" stroke-width="1" stroke-linecap="square" stroke-linejoin="bevel" transform="matrix(1.99323,0,0,1.99323,0.00239187,95.4976)"
font-family="Ubuntu" font-size="11" font-weight="400" font-style="normal" 
>
</g>

<g fill="none" stroke="#000000" stroke-opacity="1" stroke-width="1" stroke-linecap="square" stroke-linejoin="bevel" transform="matrix(1,0,0,1,0,0)"
font-family="Ubuntu" font-size="11" font-weight="400" font-style="normal" 
>
</g>
</g>
</svg>
